<svg width="676" height="367" viewBox="0 0 676 367" fill="none" xmlns="http://www.w3.org/2000/svg">
<g clip-path="url(#clip0)">
<path d="M39.06 365.02C41.0338 364.588 43.0412 364.327 45.06 364.24H662.66C668.21 364.24 668.54 346.07 669.33 342.49C671.59 332.17 669.55 321.72 665.89 311.95C661.25 299.6 654.54 287.78 652.97 274.69C651.52 262.62 654.56 250.53 656.71 238.57C658.86 226.61 660.07 213.82 655.22 202.68C649.6 189.75 636.56 180.75 632.61 167.22C630.32 159.37 631.4 151 630.89 142.84C630.32 133.84 625.6 121.52 617.2 116.93C605.59 110.6 591.2 116.43 578.88 112.58C569.12 109.58 562.03 101.11 556.53 92.48C551.03 83.85 546.41 74.48 539.01 67.39C523.29 52.39 493.66 58.84 480.16 74.2C467.25 88.88 439.53 94.08 424.31 81.92C413.31 73.17 408.2 58.92 399.2 48.07C380.28 25.23 338.43 16.87 320.2 44.67C312.47 56.32 309.33 70.46 304 83.43C298.67 96.4 289.7 109.28 276.36 112.8C263.02 116.32 249.16 109.48 235.36 108.33C227.775 107.773 220.162 108.909 213.07 111.657C205.979 114.406 199.588 118.697 194.36 124.22C189.133 129.899 185.19 136.637 182.798 143.976C180.407 151.314 179.623 159.082 180.5 166.75C181.82 177.75 178.5 189.12 168.07 192.1C157.64 195.08 146.67 191.82 136.15 189.29C125.63 186.76 113.86 185.14 104.6 190.83C90.8 199.32 89.6 219.03 90.84 235.44C91.72 246.79 92.84 258.89 89.2 269.89C87.64 274.63 84.72 280.42 80.69 283.57C75.55 287.57 66.3 289.04 60.12 291.19C44.67 296.58 28.36 302.57 18.24 315.42C10.97 324.64 7.73999 337.48 11.8 348.5C15.16 357.66 24.25 364.99 34.13 365.5C35.7862 365.526 37.44 365.365 39.06 365.02Z" fill="#E5C5A7"/>
<path d="M601.66 364.24H61.89C62.4399 358.247 64.4782 352.486 67.82 347.48C75.93 335.48 89.35 328.37 102.39 322.11C115.43 315.85 129.1 309.67 138.58 298.74C148.39 287.42 152.51 272.43 157.88 258.44C163.25 244.45 171.07 230.06 184.68 223.8C203.15 215.3 224.53 224.72 242.41 234.39C260.29 244.06 280.87 254.39 300.01 247.58C318.18 241.08 327.61 221.75 337.53 205.2C347.45 188.65 363.67 171.65 382.66 175.02C400.37 178.15 410.02 197.19 415.58 214.29C421.14 231.39 426.83 250.83 442.73 259.24C469.04 273.16 506.11 247.57 529.44 266.06C546.76 279.78 543.22 308.51 558.27 324.69C566.62 333.69 579.27 337.2 588.76 344.98C594.798 350.048 599.272 356.727 601.66 364.24Z" fill="#E5A7A9"/>
<path d="M298 125.32V144.56L303.76 150.32H323V125.32H298Z" fill="#E2B17F"/>
<path d="M300 123.32V142.56L305.76 148.32H325V123.32H300Z" fill="white"/>
<path d="M300.19 142.32L306 148.13V142.32H300.19Z" fill="#FFF7E0"/>
<path d="M311 125.32H315V120.32H311V125.32Z" fill="#FFF7E0"/>
<path d="M268 125.32V144.56L273.76 150.32H293V125.32H268Z" fill="#E2B17F"/>
<path d="M271 123.32V142.56L276.76 148.32H296V123.32H271Z" fill="white"/>
<path d="M271.19 142.32L277 148.13V142.32H271.19Z" fill="#FFF7E0"/>
<path d="M281 125.32H285V120.32H281V125.32Z" fill="#FFF7E0"/>
<path d="M239 125.32V144.56L244.76 150.32H264V125.32H239Z" fill="#E2B17F"/>
<path d="M242 123.32V142.56L247.76 148.32H267V123.32H242Z" fill="white"/>
<path d="M241.19 142.32L247 148.13V142.32H241.19Z" fill="#FFF7E0"/>
<path d="M252 125.32H256V120.32H252V125.32Z" fill="#FFF7E0"/>
<path d="M209 125.32V144.56L214.76 150.32H234V125.32H209Z" fill="#E2B17F"/>
<path d="M212 123.32V142.56L217.76 148.32H237V123.32H212Z" fill="white"/>
<path d="M223 125.32H227V120.32H223V125.32Z" fill="#FFF7E0"/>
<path d="M212.19 142.32L218 148.13V142.32H212.19Z" fill="#FFF7E0"/>
<path d="M362.31 0H469.8C473.579 0 477.204 1.50134 479.876 4.17373C482.549 6.84612 484.05 10.4707 484.05 14.25V79.74C484.05 83.5203 482.549 87.1458 479.877 89.8198C477.205 92.4938 473.58 93.9973 469.8 94H358.52L348.05 105.57V14.25C348.053 10.4697 349.556 6.84523 352.23 4.17312C354.904 1.50102 358.53 -9.29505e-07 362.31 0Z" fill="#40405A"/>
<path d="M454.47 14H374.57C374.342 14.017 374.113 13.9857 373.897 13.9083C373.682 13.8308 373.485 13.7088 373.32 13.5504C373.155 13.3919 373.025 13.2004 372.939 12.9885C372.853 12.7765 372.812 12.5487 372.82 12.32C372.792 12.0991 372.823 11.8748 372.909 11.6695C372.996 11.4643 373.134 11.2853 373.312 11.1506C373.489 11.0159 373.698 10.9301 373.919 10.9019C374.14 10.8738 374.365 10.9041 374.57 10.99H454.47C454.675 10.9073 454.899 10.8793 455.118 10.9088C455.338 10.9383 455.546 11.0243 455.722 11.1583C455.899 11.2924 456.037 11.4699 456.125 11.6735C456.212 11.8771 456.245 12.0999 456.22 12.32C456.226 12.5483 456.184 12.7753 456.098 12.9866C456.011 13.1979 455.881 13.3887 455.716 13.5468C455.552 13.705 455.356 13.827 455.141 13.905C454.926 13.9831 454.698 14.0154 454.47 14Z" fill="#E8575D"/>
<path d="M402.26 82H374.57C373.57 82.73 372.82 81.95 372.82 81C372.847 80.5193 373.034 80.0614 373.351 79.699C373.668 79.3367 374.097 79.0906 374.57 79H402.26C402.731 79.0926 403.158 79.3395 403.473 79.7017C403.788 80.0639 403.973 80.5207 404 81C404 81.95 403.22 82.73 402.26 82Z" fill="#E8575D"/>
<path d="M463.55 53H383.65C383.438 53.0674 383.213 53.0811 382.995 53.04C382.777 52.9988 382.572 52.9041 382.4 52.7643C382.227 52.6245 382.092 52.4439 382.007 52.239C381.921 52.034 381.888 51.811 381.91 51.59C381.899 51.3651 381.938 51.1406 382.023 50.9325C382.109 50.7243 382.24 50.5377 382.406 50.3858C382.572 50.2339 382.77 50.1206 382.985 50.0539C383.2 49.9873 383.427 49.9688 383.65 50H463.55C463.774 49.9672 464.002 49.9844 464.218 50.0504C464.434 50.1163 464.633 50.2294 464.801 50.3814C464.968 50.5335 465.1 50.7207 465.186 50.9297C465.272 51.1387 465.311 51.3642 465.3 51.59C465.32 51.8115 465.285 52.0345 465.198 52.2392C465.112 52.4439 464.976 52.6241 464.803 52.7636C464.629 52.9031 464.424 52.9977 464.206 53.0389C463.987 53.0802 463.762 53.0668 463.55 53Z" fill="#E8575D"/>
<path d="M407 61H383.7C382.7 61.49 381.96 60.7 381.96 59.74C381.959 59.5111 382.003 59.2843 382.09 59.0726C382.177 58.8609 382.305 58.6685 382.467 58.5067C382.629 58.3448 382.821 58.2167 383.033 58.1297C383.244 58.0428 383.471 57.9987 383.7 58H407C407.229 57.9987 407.456 58.0428 407.667 58.1297C407.879 58.2167 408.071 58.3448 408.233 58.5067C408.395 58.6685 408.523 58.8609 408.61 59.0726C408.697 59.2843 408.741 59.5111 408.74 59.74C408.69 60.7 407.91 61.49 407 61Z" fill="#E8575D"/>
<path d="M444.92 21H394.37C394.142 21.0139 393.915 20.9805 393.701 20.9019C393.487 20.8233 393.291 20.7012 393.127 20.5434C392.963 20.3855 392.833 20.1953 392.745 19.9848C392.658 19.7742 392.615 19.5479 392.62 19.32C392.62 18.32 393.4 17.57 394.37 18H444.92C445.92 17.57 446.67 18.36 446.67 19.32C446.675 19.5479 446.632 19.7742 446.545 19.9848C446.457 20.1953 446.327 20.3855 446.163 20.5434C445.999 20.7012 445.803 20.8233 445.589 20.9019C445.375 20.9805 445.147 21.0139 444.92 21Z" fill="#8BC540"/>
<path d="M444.92 28H394.37C394.143 28.0124 393.916 27.9779 393.702 27.8988C393.489 27.8196 393.294 27.6975 393.13 27.54C392.966 27.3824 392.836 27.1928 392.748 26.983C392.661 26.7731 392.617 26.5475 392.62 26.32C392.62 25.32 393.4 24.57 394.37 25.01H444.92C445.92 24.57 446.67 25.36 446.67 26.32C446.672 26.5471 446.627 26.772 446.539 26.9812C446.45 27.1904 446.32 27.3794 446.157 27.5366C445.993 27.6939 445.799 27.8161 445.586 27.8957C445.373 27.9754 445.147 28.0109 444.92 28Z" fill="#8BC540"/>
<path d="M444.92 35H394.37C393.37 35.51 392.62 34.73 392.62 33.77C392.623 33.3048 392.807 32.8591 393.134 32.5283C393.461 32.1975 393.905 32.0078 394.37 32H444.92C445.385 32.0078 445.829 32.1975 446.156 32.5283C446.483 32.8591 446.667 33.3048 446.67 33.77C446.67 34.73 445.88 35.51 444.92 35Z" fill="#8BC540"/>
<path d="M444.92 68H394.37C394.141 68.0068 393.913 67.9671 393.699 67.8835C393.486 67.7998 393.292 67.6738 393.128 67.5132C392.965 67.3525 392.835 67.1604 392.748 66.9485C392.661 66.7366 392.617 66.5092 392.62 66.28C392.62 65.28 393.4 64.54 394.37 65H444.92C445.92 64.54 446.67 65.32 446.67 66.28C446.671 66.5088 446.627 66.7356 446.539 66.9469C446.451 67.1581 446.322 67.3497 446.159 67.51C445.996 67.6704 445.802 67.7964 445.589 67.8806C445.376 67.9648 445.149 68.0054 444.92 68Z" fill="#8BC540"/>
<path d="M444.92 75H394.37C393.37 75.48 392.62 74.7 392.62 73.74C392.619 73.5103 392.663 73.2826 392.751 73.0702C392.838 72.8579 392.967 72.6651 393.13 72.5031C393.293 72.3411 393.487 72.2132 393.7 72.1268C393.912 72.0404 394.14 71.9973 394.37 72H444.92C445.149 71.9987 445.377 72.0427 445.589 72.1296C445.801 72.2164 445.994 72.3444 446.157 72.5061C446.319 72.6678 446.449 72.86 446.537 73.0718C446.625 73.2836 446.67 73.5106 446.67 73.74C446.67 74.7 445.88 75.48 444.92 75Z" fill="#8BC540"/>
<path d="M434.44 44H383.89C383.665 44.0261 383.437 44.0033 383.222 43.9329C383.006 43.8626 382.809 43.7465 382.642 43.5926C382.476 43.4387 382.345 43.2506 382.258 43.0413C382.172 42.832 382.131 42.6064 382.14 42.38C382.117 42.1589 382.151 41.9356 382.238 41.7309C382.324 41.5262 382.461 41.3467 382.636 41.2091C382.81 41.0715 383.017 40.9801 383.236 40.9436C383.455 40.907 383.68 40.9264 383.89 41H434.44C434.649 40.9257 434.874 40.9059 435.093 40.9423C435.312 40.9787 435.518 41.0702 435.692 41.2082C435.866 41.3461 436.002 41.5261 436.087 41.731C436.173 41.936 436.205 42.1593 436.18 42.38C436.19 42.6059 436.151 42.8313 436.066 43.0407C435.98 43.25 435.85 43.4383 435.685 43.5923C435.519 43.7464 435.322 43.8627 435.107 43.9331C434.892 44.0035 434.665 44.0263 434.44 44Z" fill="#8683BE"/>
<path d="M235.29 95.32H169.71C167.4 95.32 165.185 96.2377 163.551 97.8711C161.918 99.5046 161 101.72 161 104.03V143.61C161 145.92 161.918 148.135 163.551 149.769C165.185 151.402 167.4 152.32 169.71 152.32H237.62L244 159.32V104.03C244 101.72 243.082 99.5046 241.449 97.8711C239.815 96.2377 237.6 95.32 235.29 95.32Z" fill="#40405A"/>
<path d="M226.48 104.32H177.69C177.553 104.33 177.415 104.311 177.286 104.265C177.156 104.219 177.038 104.147 176.937 104.053C176.837 103.959 176.757 103.846 176.702 103.72C176.648 103.593 176.62 103.457 176.62 103.32C176.62 103.183 176.648 103.047 176.702 102.92C176.757 102.794 176.837 102.681 176.937 102.587C177.038 102.493 177.156 102.421 177.286 102.375C177.415 102.329 177.553 102.31 177.69 102.32H226.48C226.616 102.312 226.753 102.332 226.881 102.378C227.009 102.425 227.127 102.497 227.226 102.591C227.326 102.684 227.405 102.798 227.459 102.923C227.513 103.048 227.54 103.183 227.54 103.32C227.54 103.457 227.513 103.592 227.459 103.717C227.405 103.842 227.326 103.956 227.226 104.049C227.127 104.143 227.009 104.215 226.881 104.262C226.753 104.308 226.616 104.328 226.48 104.32Z" fill="#E8575D"/>
<path d="M194.07 146.32H178.22C177.955 146.32 177.7 146.215 177.513 146.027C177.325 145.84 177.22 145.585 177.22 145.32C177.22 145.055 177.325 144.8 177.513 144.613C177.7 144.425 177.955 144.32 178.22 144.32H194.07C194.335 144.32 194.59 144.425 194.777 144.613C194.965 144.8 195.07 145.055 195.07 145.32C195.07 145.585 194.965 145.84 194.777 146.027C194.59 146.215 194.335 146.32 194.07 146.32Z" fill="#E8575D"/>
<path d="M232 128.32H183.24C183.103 128.33 182.965 128.311 182.836 128.265C182.706 128.219 182.588 128.147 182.487 128.053C182.387 127.959 182.307 127.846 182.252 127.72C182.198 127.593 182.17 127.457 182.17 127.32C182.17 127.183 182.198 127.047 182.252 126.92C182.307 126.794 182.387 126.681 182.487 126.587C182.588 126.493 182.706 126.421 182.836 126.375C182.965 126.329 183.103 126.31 183.24 126.32H232C232.137 126.31 232.275 126.329 232.404 126.375C232.534 126.421 232.652 126.493 232.753 126.587C232.853 126.681 232.933 126.794 232.988 126.92C233.042 127.047 233.07 127.183 233.07 127.32C233.07 127.457 233.042 127.593 232.988 127.72C232.933 127.846 232.853 127.959 232.753 128.053C232.652 128.147 232.534 128.219 232.404 128.265C232.275 128.311 232.137 128.33 232 128.32Z" fill="#E8575D"/>
<path d="M197 133.32H183.68C183.415 133.32 183.16 133.215 182.973 133.027C182.785 132.84 182.68 132.585 182.68 132.32C182.68 132.055 182.785 131.8 182.973 131.613C183.16 131.425 183.415 131.32 183.68 131.32H197C197.265 131.32 197.52 131.425 197.707 131.613C197.895 131.8 198 132.055 198 132.32C198 132.585 197.895 132.84 197.707 133.027C197.52 133.215 197.265 133.32 197 133.32Z" fill="#E8575D"/>
<path d="M219.68 108.32H190.75C190.485 108.32 190.23 108.215 190.043 108.027C189.855 107.84 189.75 107.585 189.75 107.32C189.75 107.055 189.855 106.8 190.043 106.613C190.23 106.425 190.485 106.32 190.75 106.32H219.68C219.945 106.32 220.2 106.425 220.387 106.613C220.575 106.8 220.68 107.055 220.68 107.32C220.68 107.585 220.575 107.84 220.387 108.027C220.2 108.215 219.945 108.32 219.68 108.32Z" fill="#8BC540"/>
<path d="M219.68 112.32H190.75C190.485 112.32 190.23 112.215 190.043 112.027C189.855 111.84 189.75 111.585 189.75 111.32C189.75 111.055 189.855 110.8 190.043 110.613C190.23 110.425 190.485 110.32 190.75 110.32H219.68C219.945 110.32 220.2 110.425 220.387 110.613C220.575 110.8 220.68 111.055 220.68 111.32C220.68 111.585 220.575 111.84 220.387 112.027C220.2 112.215 219.945 112.32 219.68 112.32Z" fill="#8BC540"/>
<path d="M219.68 117.32H190.74C190.475 117.32 190.22 117.215 190.033 117.027C189.845 116.84 189.74 116.585 189.74 116.32C189.74 116.055 189.845 115.8 190.033 115.613C190.22 115.425 190.475 115.32 190.74 115.32H219.68C219.945 115.32 220.2 115.425 220.387 115.613C220.575 115.8 220.68 116.055 220.68 116.32C220.68 116.585 220.575 116.84 220.387 117.027C220.2 117.215 219.945 117.32 219.68 117.32Z" fill="#8BC540"/>
<path d="M219.68 137.32H190.75C190.485 137.32 190.23 137.215 190.043 137.027C189.855 136.84 189.75 136.585 189.75 136.32C189.75 136.055 189.855 135.8 190.043 135.613C190.23 135.425 190.485 135.32 190.75 135.32H219.68C219.945 135.32 220.2 135.425 220.387 135.613C220.575 135.8 220.68 136.055 220.68 136.32C220.68 136.585 220.575 136.84 220.387 137.027C220.2 137.215 219.945 137.32 219.68 137.32Z" fill="#8BC540"/>
<path d="M219.68 141.32H190.75C190.485 141.32 190.23 141.215 190.043 141.027C189.855 140.84 189.75 140.585 189.75 140.32C189.75 140.055 189.855 139.8 190.043 139.613C190.23 139.425 190.485 139.32 190.75 139.32H219.68C219.945 139.32 220.2 139.425 220.387 139.613C220.575 139.8 220.68 140.055 220.68 140.32C220.68 140.585 220.575 140.84 220.387 141.027C220.2 141.215 219.945 141.32 219.68 141.32Z" fill="#8BC540"/>
<path d="M213.28 122.32H184.35C184.085 122.32 183.83 122.215 183.643 122.027C183.455 121.84 183.35 121.585 183.35 121.32C183.35 121.055 183.455 120.8 183.643 120.613C183.83 120.425 184.085 120.32 184.35 120.32H213.28C213.545 120.32 213.8 120.425 213.987 120.613C214.175 120.8 214.28 121.055 214.28 121.32C214.28 121.585 214.175 121.84 213.987 122.027C213.8 122.215 213.545 122.32 213.28 122.32Z" fill="#8683BE"/>
<path d="M529.32 13.82H587.83C589.883 13.82 591.851 14.6355 593.303 16.087C594.755 17.5385 595.57 19.5072 595.57 21.56V57.07C595.571 58.0873 595.372 59.0948 594.984 60.035C594.595 60.9753 594.025 61.8297 593.307 62.5495C592.588 63.2693 591.734 63.8403 590.794 64.2299C589.855 64.6195 588.847 64.82 587.83 64.82H527.27L521.57 71.1V21.56C521.573 19.5063 522.39 17.5376 523.843 16.0864C525.297 14.6352 527.266 13.82 529.32 13.82Z" fill="#40405A"/>
<path d="M551.41 37.94L543.51 40.47L550.39 43.01L549.61 46.94L538.07 42.42L538.94 38.08L552.29 33.57L551.41 37.94Z" fill="#E8575D"/>
<path d="M561.61 27.82H566.61L554.11 50.82H549.11L561.61 27.82Z" fill="#E8575D"/>
<path d="M577.25 38.08L576.37 42.42L563 46.94L563.87 42.57L571.78 40.03L564.9 37.5L565.68 33.57L577.25 38.08Z" fill="#E8575D"/>
<path d="M83 212.32H175C178.314 212.32 181 209.634 181 206.32C181 203.006 178.314 200.32 175 200.32H83C79.6863 200.32 77 203.006 77 206.32C77 209.634 79.6863 212.32 83 212.32Z" fill="#40405A"/>
<path d="M175 203.32H83.7C82.7877 203.32 81.9127 203.682 81.2676 204.328C80.6224 204.973 80.26 205.848 80.26 206.76V206.88C80.26 207.792 80.6224 208.667 81.2676 209.312C81.9127 209.958 82.7877 210.32 83.7 210.32H175" fill="#171826"/>
<path d="M120.11 206.82C120.106 207.277 120.193 207.731 120.364 208.155C120.536 208.578 120.789 208.964 121.11 209.29C121.434 209.613 121.82 209.867 122.244 210.039C122.668 210.211 123.122 210.296 123.58 210.29H174.69C174.98 210.289 175.269 210.252 175.55 210.18C176.375 209.968 177.094 209.463 177.573 208.759C178.052 208.056 178.258 207.201 178.153 206.357C178.047 205.512 177.637 204.734 177 204.17C176.363 203.605 175.541 203.293 174.69 203.29H123.49C122.578 203.324 121.716 203.711 121.085 204.37C120.454 205.029 120.104 205.908 120.11 206.82Z" fill="#8BC540"/>
<path d="M169.11 203.32L170.6 210.32H174.32C174.61 210.32 174.899 210.283 175.18 210.21L173.71 203.32H169.11Z" fill="#37B34A"/>
<path d="M160.06 203.32L161.56 210.32H166.16L164.67 203.32H160.06Z" fill="#37B34A"/>
<path d="M151.03 203.32L152.52 210.32H157.12L155.63 203.32H151.03Z" fill="#37B34A"/>
<path d="M141.98 203.32L143.47 210.32H148.08L146.59 203.32H141.98Z" fill="#37B34A"/>
<path d="M132.94 203.32L134.43 210.32H139.04L137.55 203.32H132.94Z" fill="#37B34A"/>
<path d="M123.92 203.41L125.39 210.32H130L128.51 203.32H124L123.92 203.41Z" fill="#37B34A"/>
<path d="M493 94.72C493 94.72 487.86 79.02 502 77.03C512 75.17 520.83 77.31 524.54 84.59C528.25 91.87 524.79 114.32 513.84 125.54C502.14 137.54 487.01 147.23 469.46 141.38C451.91 135.53 446.2 125.54 444.63 118.84C443.06 112.14 448.06 102.57 460.63 102.28C473.2 101.99 480.46 104.42 487.02 102.57C488.785 102.182 490.355 101.179 491.45 99.7419C492.545 98.3043 493.094 96.5247 493 94.72Z" fill="#2F2D44"/>
<path d="M517.1 91.32C517.1 91.32 514.5 87.14 514.1 86.64C516.96 87.85 520.1 91.77 519.96 95.55C519.755 97.9438 518.718 100.19 517.03 101.9L517.1 91.32Z" fill="#171826"/>
<path d="M519.65 97.86C519.65 97.86 516.8 128.86 493.97 133.53C475.05 137.44 459.97 133.53 456.58 124.26C453.52 115.98 458.72 109.99 462.86 108.26C467 106.53 478.41 111.68 489.86 107.54C501.31 103.4 497.42 95.98 497.42 95.98L519.65 97.86Z" fill="#171826"/>
<path d="M576.64 137.79C576.64 137.79 557.42 143.92 553.76 148.52C551.36 151.52 550.76 155.52 553.9 158.36C557.04 161.2 562.73 157.45 564.74 155.94L578.42 146.15C578.42 146.15 581.13 138.78 576.64 137.79Z" fill="#F09087"/>
<path d="M562.78 158.08C562.78 158.08 545.78 171.83 535.78 169.21C525.29 163.74 517.92 147.67 516.53 141.21C515.14 134.75 518.68 119.51 525.83 120.21C528.18 120.43 541.35 150.5 541.35 150.5L557.83 144.72C557.83 144.72 563.74 151.55 562.78 158.08Z" fill="#D3333B"/>
<path d="M581.88 135.84C583.365 136.993 584.959 137.997 586.64 138.84C588.45 139.65 594.99 142.21 595.11 143.95C595.3 146.77 590.82 143.02 587.33 142.33C583.84 141.64 583.33 145.46 580.95 144.76C578.57 144.06 577.23 142.76 577.95 140.47C578.67 138.18 581.88 135.84 581.88 135.84Z" fill="#F09087"/>
<path d="M575.9 141.11C575.9 141.11 575.9 135.38 576.9 134.11C577.9 132.84 584.99 132.69 584.99 132.69C584.99 132.69 586.94 130.2 587.83 130.47C588.72 130.74 588.46 132.87 587.03 134.47C585.6 136.07 582.14 135 582.14 135C582.14 135 581.79 138.91 580.81 139.89C579.83 140.87 575.9 141.11 575.9 141.11Z" fill="#F7AB9D"/>
<path d="M574.62 144.62C574.53 146.4 578.8 148.44 580.13 148.44H580.37C581.75 148.44 584.07 148.18 584.49 146.67C585.067 146.695 585.633 146.504 586.077 146.135C586.521 145.765 586.811 145.242 586.89 144.67C587.89 144.14 588.76 143.6 588.22 142.27C587.68 140.94 585.82 140.4 584.4 140.85C582.98 141.3 583.4 142.36 583.4 142.36C583.4 142.36 581.99 141.92 581.99 143.84C580.99 141.71 576.3 140.37 576.3 140.37C575.444 141.651 574.871 143.1 574.62 144.62Z" fill="#F7AB9D"/>
<path d="M574.57 144.62C574.48 146.4 578.74 148.44 580.08 148.44H580.32C580.722 148.215 581.068 147.904 581.335 147.529C581.601 147.153 581.78 146.723 581.86 146.27C581.497 146.453 581.104 146.572 580.7 146.62C579.9 146.76 578.79 145.87 579.32 144.93C579.85 143.99 581.95 143.93 581.95 143.93C580.95 141.8 576.26 140.46 576.26 140.46C575.408 141.711 574.832 143.129 574.57 144.62Z" fill="#F09087"/>
<path d="M457 206.69C457.55 211.69 460.87 222.78 465 235.2C469.36 248.2 474.62 262.72 478.54 273.31C481.64 281.7 482.97 292.72 485.22 304.92C487.47 317.12 505.13 364.63 505.13 364.63L513.69 358.27L516.25 356.38L526.32 348.9L507.32 286.3L491.43 201.52L489.02 188.7L462.7 176.82C462.7 176.82 455.36 191.92 457 206.69Z" fill="#4C5D46"/>
<path d="M467 209.87C467 209.87 483.55 257.96 487.83 272.09C492.11 286.22 494.97 299.2 498.39 312.9C501.02 323.4 510.1 347.57 514.19 358.28L516.75 356.39C507.81 340 495.55 295.23 493.97 286.5C492.25 277.08 468.57 208.02 468.57 208.02L467 209.87Z" fill="#384936"/>
<path d="M457.47 206.69C458.02 211.69 461.34 222.78 465.47 235.2C467.17 228.44 468.47 216.81 474.47 202.53C479.06 202.82 486.28 202.18 491.98 201.53L489.57 188.71L463.25 176.83C463.25 176.83 455.86 191.92 457.47 206.69Z" fill="#384936"/>
<path d="M505.63 364.2L549.4 363.04C549.259 361.388 548.782 359.782 548 358.32C547.311 357.02 546.23 355.97 544.91 355.32C540.74 353.4 526.83 348.9 526.83 348.9C526.83 348.9 521.72 347.18 510.73 358.3C508.908 360.158 507.205 362.129 505.63 364.2Z" fill="#D3333B"/>
<path d="M505.63 364.21L549.4 363.05C549.26 361.395 548.784 359.785 548 358.32H510.72C508.9 360.173 507.2 362.14 505.63 364.21Z" fill="white"/>
<path d="M427.18 289.07C427.61 296.13 434.89 364.2 434.89 364.2L441.32 360.1L443.8 358.52L459.39 348.59C459.39 348.59 453.51 301.49 453.72 277.51C455.44 246.85 463.42 217.42 468.56 201.19C471.13 193.07 472.99 188.26 472.99 188.26L459.54 182.13L448.54 177.13L446.54 176.22C446.54 176.22 444.22 178.05 441.25 180.84C436.52 185.29 430.15 192.19 428.83 198.1C426.69 207.73 430.76 266.6 430.76 266.6C430.76 266.6 426.75 282.01 427.18 289.07Z" fill="#4C5D46"/>
<path d="M441.31 180.84C444.46 184.84 448.73 189.62 452.66 192.54C456.95 195.73 463.66 198.99 468.56 201.19C471.13 193.07 472.99 188.26 472.99 188.26L446.6 176.26C446.6 176.26 444.28 178.05 441.31 180.84Z" fill="#384936"/>
<path d="M434.67 308.12C435.25 319.77 440.25 353.07 441.32 360.12L443.8 358.54C442.54 351.49 437.59 323.19 437.03 311.99C436.41 299.69 435.6 283.84 437.79 271.43C437.984 270.344 438.085 269.243 438.09 268.14C438.2 256.66 440.84 211.86 443.66 198.14C454.9 197.22 458.46 188.61 459.54 182.14L448.54 177.14C446.11 182.34 441.83 191.76 440.63 195.97C439.08 201.38 436.84 247.26 436.57 265.42C436.525 268.211 436.275 270.996 435.82 273.75C434.52 282.04 434.12 296.9 434.67 308.12Z" fill="#384936"/>
<path d="M450.52 274.32C450.23 273.71 440.88 273.47 440.03 274.96C439.18 276.45 442.81 291.23 445.38 289.52C447.95 287.81 452 277.51 450.52 274.32Z" fill="#384936"/>
<path d="M434.89 364.2L478.66 363.04C478.517 361.385 478.041 359.776 477.26 358.31C476.568 357.009 475.483 355.959 474.16 355.31C469.99 353.39 459.4 348.57 459.4 348.57C459.4 348.57 451 347.19 440 358.32C438.178 360.174 436.472 362.138 434.89 364.2Z" fill="#EF515F"/>
<path d="M434.89 364.21L478.66 363.05C478.517 361.395 478.041 359.786 477.26 358.32H440C438.176 360.175 436.469 362.142 434.89 364.21Z" fill="white"/>
<path d="M446.6 176.22C450.48 181.47 466.22 190.01 470.88 191.22C475.54 192.43 483.88 193.32 495.88 192.15C496 189.76 499.02 180.15 501.75 172.41C502.856 168.99 504.192 165.649 505.75 162.41C507.5 159.69 517.51 156.65 519.26 152.96C521.01 149.27 519.88 137.15 519.88 137.15C519.88 137.15 527.81 122.38 525.88 120.24C523.95 118.1 513.72 113.24 513.72 113.24C513.72 113.24 505.48 111.37 501.67 111.7C497.86 112.03 474.39 111.96 470.67 120.5C466.95 129.04 455.33 166.5 455.33 166.5C455.33 166.5 454.56 168.45 446.6 176.22Z" fill="#EF515F"/>
<path d="M466.57 170.06C467.88 171.06 489.89 173.27 501.76 172.37C502.866 168.95 504.202 165.609 505.76 162.37C505.76 162.37 494.84 166.65 486.28 167.5C477.72 168.35 464.86 168.78 466.57 170.06Z" fill="#D3333B"/>
<path d="M492.11 201.46C509.5 224.14 510.45 222.93 510.45 222.93C515.66 222.54 517.58 217.44 517.58 217.44L503.67 193.18C499.146 194.858 495.154 197.717 492.11 201.46Z" fill="#F7AB9D"/>
<path d="M469.71 150.8C470.83 161.74 471.6 176.03 481.98 190.61C484.59 194.28 487.87 198.43 491.33 202.61C494.86 198.32 501.88 195.42 505.56 194.13L492.68 170.24C492.68 170.24 488.6 122.67 486.35 119.02C484.1 115.37 478.52 114.63 474.01 118.46C469.85 121.97 468.58 139.86 469.71 150.8Z" fill="#D3333B"/>
<path d="M524.49 214.8C525.73 214.931 526.959 215.144 528.17 215.44C528.76 215.71 533.92 220.79 534.51 221.33C535.1 221.87 537.8 222.61 538.09 223.15C538.38 223.69 536.97 225.34 534.41 224.54C531.85 223.74 525.42 216.56 524.49 214.8Z" fill="#EF515F"/>
<path d="M510.34 222.93C511.92 223.68 518.77 223.68 518.77 223.68C518.77 223.68 524.88 224.86 527.34 224.96C528.28 225.01 529.47 225.08 530.6 225.1C531.28 225.1 531.94 225.1 532.52 225.1C533.52 225.04 534.22 224.89 534.41 224.56C534.9 223.7 526.23 214.82 524.49 214.82C521.74 214.82 513.19 215.67 513.19 215.67C508.09 217.15 508.77 222.18 510.34 222.93Z" fill="#F7AB9D"/>
<path d="M530.6 225.1C531.28 225.1 531.94 225.1 532.52 225.1C530.29 222.36 525.44 217.91 525.28 218.35C525.12 218.79 528.5 222.67 530.6 225.1Z" fill="#EF515F"/>
<path d="M501.26 110.32C502.76 113.86 509.09 116.55 513.7 113.22C513.814 111.635 514.095 110.066 514.54 108.54C515.92 103.14 518.54 95.84 518.54 95.84C513.39 92.84 503.41 102.71 503.41 104.21C503.48 106.013 502.96 107.789 501.93 109.27C501.737 109.597 501.513 109.947 501.26 110.32Z" fill="#F09087"/>
<path d="M501.92 109.26C503.997 109.724 506.113 109.989 508.24 110.05C510.442 110.155 512.628 109.628 514.54 108.53C515.92 103.13 518.54 95.83 518.54 95.83C513.39 92.83 503.41 102.7 503.41 104.2C503.477 106.004 502.954 107.78 501.92 109.26Z" fill="#EF515F"/>
<path d="M501.29 109.32C501.29 109.32 504.79 111.64 506.61 112.57C509.76 112.06 514.28 110.73 514.28 110.73C514.28 110.73 514.35 112.58 514.28 114.48C513.18 117.24 508.35 119.41 508.35 119.41C508.35 119.41 506.93 117.14 506.13 115.56C505.27 116.71 504.3 117.95 503.6 118.69C501.6 117.74 499.23 112.4 499.26 111.62C499.782 110.73 500.471 109.949 501.29 109.32Z" fill="#D3333B"/>
<path d="M523.05 92.94C524.58 93.67 524.48 95.13 524.05 96.64C523.62 98.15 520.71 101.15 518.45 101.42C517.387 101.597 516.297 101.518 515.27 101.19C515.27 101.19 519.3 91.18 523.05 92.94Z" fill="#F09087"/>
<path d="M522.16 94.11C521 93.8 519 95.11 517.69 97.27C518.91 97.33 519.45 97.87 518.99 98.63C518.57 99.0325 518.072 99.3456 517.527 99.5501C516.982 99.7547 516.401 99.8465 515.82 99.82C515.705 100.026 515.575 100.224 515.43 100.41C515.75 100.41 520.28 100.59 520.67 98.52C520.9 96.93 518.8 96.75 518.8 96.75C518.8 96.75 520.39 95 521.56 95.42C522.73 95.84 522.56 97.26 522.56 97.26C522.56 97.26 524.08 94.61 522.16 94.11Z" fill="#EF515F"/>
<path d="M494 92.32C492.34 92.65 492.08 94.1 492.09 95.66C492.1 97.22 494.24 100.84 496.37 101.66C497.358 102.091 498.434 102.28 499.51 102.21C499.51 102.21 498.08 91.55 494 92.32Z" fill="#F09087"/>
<path d="M494.6 93.7C495.79 93.7 497.41 95.48 498.17 97.85C496.97 97.61 496.32 98.01 496.58 98.85C496.89 99.3412 497.296 99.7645 497.774 100.094C498.251 100.424 498.791 100.654 499.36 100.77C499.425 100.998 499.505 101.222 499.6 101.44C499.28 101.37 494.85 100.44 494.98 98.33C495.14 96.73 497.21 97.07 497.21 97.07C497.21 97.07 496.1 94.98 494.87 95.07C493.64 95.16 493.43 96.62 493.43 96.62C493.43 96.62 492.62 93.72 494.6 93.7Z" fill="#EF515F"/>
<path d="M496.33 90.32C496.33 90.32 496.42 90.91 496.58 91.89C497.24 95.89 499.03 106.09 500.4 107.45C502.11 109.16 511.67 106.32 513.94 104.99C516.21 103.66 519.15 94.48 519.15 94.48C519.15 94.48 517.83 91.64 517.54 91.26C515.924 90.028 514.045 89.1861 512.05 88.8C508.93 88.04 505.05 85.58 503.43 83.12C502.68 88.32 496.33 90.32 496.33 90.32Z" fill="#F7AB9D"/>
<path d="M496.33 90.32C496.33 90.32 496.42 90.91 496.58 91.89C499.67 91.14 502.58 88.58 504.13 86.74C506.22 89.31 512.96 91.12 514.94 91.61C516.92 92.1 519.15 94.48 519.15 94.48C519.15 94.48 517.83 91.64 517.54 91.26C515.924 90.028 514.045 89.1861 512.05 88.8C508.93 88.04 505.05 85.58 503.43 83.12C502.68 88.32 496.33 90.32 496.33 90.32Z" fill="#F09087"/>
<path d="M499.93 94.14C499.975 93.7687 500.161 93.4289 500.45 93.1908C500.738 92.9526 501.107 92.8342 501.48 92.86C501.856 92.8955 502.203 93.0785 502.445 93.3689C502.686 93.6593 502.803 94.0336 502.77 94.41C502.727 94.7831 502.542 95.1253 502.254 95.3656C501.965 95.6058 501.595 95.7256 501.22 95.7C500.843 95.662 500.496 95.4769 500.255 95.1849C500.013 94.8929 499.897 94.5175 499.93 94.14Z" fill="#2F2D44"/>
<path d="M497.87 91.92C498.627 91.4634 499.479 91.1863 500.36 91.11C501.219 91.2059 502.053 91.4602 502.82 91.86C502.591 91.3695 502.256 90.9358 501.839 90.59C501.422 90.2442 500.934 89.9949 500.41 89.86C498.53 89.59 497.87 91.92 497.87 91.92Z" fill="#2F2D44"/>
<path d="M507.17 94.14C507.218 93.7679 507.406 93.428 507.696 93.19C507.986 92.9521 508.356 92.834 508.73 92.86C509.104 92.898 509.449 93.082 509.688 93.3721C509.928 93.6623 510.044 94.0352 510.01 94.41C510.005 94.6063 509.96 94.7995 509.878 94.9776C509.795 95.1557 509.677 95.3149 509.53 95.4452C509.383 95.5756 509.211 95.6743 509.024 95.7353C508.838 95.7962 508.641 95.8181 508.445 95.7995C508.25 95.7809 508.06 95.7223 507.888 95.6272C507.717 95.5322 507.566 95.4028 507.446 95.2472C507.327 95.0915 507.241 94.9128 507.193 94.7223C507.145 94.5319 507.138 94.3336 507.17 94.14Z" fill="#2F2D44"/>
<path d="M511.68 91.77C510.83 91.3129 509.893 91.0435 508.93 90.98C507.983 91.0804 507.06 91.3408 506.2 91.75C506.477 91.2419 506.861 90.7999 507.325 90.4546C507.79 90.1093 508.324 89.8689 508.89 89.75C511 89.45 511.68 91.77 511.68 91.77Z" fill="#2F2D44"/>
<path d="M504.55 91.62C504.55 91.62 505.43 95.13 504.87 96.2C504.31 97.27 501.95 97.76 501.95 97.76C502.685 97.1624 503.323 96.4539 503.84 95.66C504.225 94.3437 504.464 92.9888 504.55 91.62Z" fill="#EF515F"/>
<path d="M503.2 98.15C503.3 97.9 505.46 97.95 505.4 98.4C505.29 99.21 503.07 98.45 503.2 98.15Z" fill="#F09087"/>
<path d="M509.35 100.22C509.1 100.851 508.693 101.408 508.168 101.838C507.643 102.268 507.018 102.558 506.35 102.68C505.544 102.879 504.696 102.822 503.924 102.518C503.152 102.213 502.493 101.676 502.04 100.98C503.247 101.354 504.516 101.479 505.773 101.348C507.029 101.218 508.246 100.834 509.35 100.22Z" fill="#EF515F"/>
<path d="M421 271.24V282.32H303V271.24C303 269.806 303.282 268.386 303.831 267.061C304.38 265.736 305.184 264.532 306.198 263.518C307.212 262.504 308.416 261.7 309.741 261.151C311.066 260.602 312.486 260.32 313.92 260.32H410.08C411.514 260.32 412.934 260.602 414.259 261.151C415.584 261.7 416.788 262.504 417.802 263.518C418.816 264.532 419.62 265.736 420.169 267.061C420.718 268.386 421 269.806 421 271.24Z" fill="#F9DEA6"/>
<path d="M372.87 239.08C372.87 239.08 420.69 250.53 428.64 255.36C436.59 260.19 456 349.77 456 349.77C456 349.77 437.25 356.3 431.57 363.97C422.19 323.07 408.77 279.79 408.77 279.79C408.77 279.79 371 269.32 363.3 266.44C355.6 263.56 343.42 254.8 340.3 243.44C337.18 232.08 369.93 237.32 372.87 239.08Z" fill="#2F2D44"/>
<path d="M431.55 363.32H444.28L447.7 364.32H478.17C477.568 363.142 476.754 362.084 475.77 361.2C474.23 359.62 472.17 357.81 470.21 357.2C466.41 355.93 460.66 352.08 458.6 350.2C456.54 348.32 448.46 343.91 445.3 344.67C442.69 345.29 434.67 353.43 432.23 360.03C432.08 360.44 431.96 360.84 431.85 361.23C431.632 361.905 431.531 362.611 431.55 363.32Z" fill="#9F4835"/>
<path d="M431.55 363.32H444.28L447.7 364.32H478.34C476.82 363.239 475.244 362.238 473.62 361.32H431.85L431.55 363.32Z" fill="#843528"/>
<path d="M462.87 354.17C466.33 356.53 471.87 358.17 472.82 359.17L473.75 360.27L453.6 360.02C453.6 360.02 457.48 353.83 462.87 354.17Z" fill="#AF5647"/>
<path d="M439.6 350.32C439.6 350.32 446.05 354.68 449.78 356.01C453.51 357.34 456.78 358.28 457.43 361.63L458.19 361.76C458.19 361.76 458.95 359.99 455.54 357.53C452.13 355.07 450.1 355.53 446.87 353.6C443.64 351.67 440.11 349.37 440.11 349.37L439.6 350.32Z" fill="#843528"/>
<path d="M360.89 363.32H373.63L377.04 364.32H407.52C406.912 363.143 406.096 362.085 405.11 361.2C403.57 359.62 401.51 357.81 399.55 357.2C395.76 355.93 390 352.08 387.95 350.2C385.9 348.32 377.8 343.91 374.64 344.67C372.04 345.29 364.01 353.43 361.58 360.03C361.43 360.44 361.3 360.84 361.2 361.23C360.981 361.905 360.876 362.611 360.89 363.32Z" fill="#9F4835"/>
<path d="M360.89 363.32H373.63L377.04 364.32H407.69C406.167 363.238 404.588 362.237 402.96 361.32H361.2L360.89 363.32Z" fill="#843528"/>
<path d="M392.22 354.17C395.67 356.53 401.22 358.17 402.16 359.17L403.09 360.27L382.94 360.02C382.94 360.02 386.82 353.83 392.22 354.17Z" fill="#AF5647"/>
<path d="M369 350.32C369 350.32 375.45 354.68 379.18 356.01C382.91 357.34 386.18 358.28 386.83 361.63L387.59 361.76C387.59 361.76 388.35 359.99 384.93 357.53C381.51 355.07 379.49 355.53 376.27 353.6C373.05 351.67 369.5 349.37 369.5 349.37L369 350.32Z" fill="#843528"/>
<path d="M310.61 256.07C312.52 260.97 348.74 279.3 348.74 279.3L360.89 363.97C360.89 363.97 363.03 362.7 366.12 360.97L367.71 360.09C373.98 356.65 384.55 350.39 388.35 350.26C384.73 330.26 379.85 287.38 377.93 274.39C376.01 261.4 351.73 247.32 351.73 247.32L346.61 238.8L327.14 243.49L316.78 245.99L310.39 247.53C309.357 250.298 309.436 253.359 310.61 256.07Z" fill="#40405A"/>
<path d="M316.78 246.01C318.61 250.62 321.35 254.6 322.68 255.65C324.01 256.7 337.84 264.98 346.32 270.04C348.387 271.268 350.151 272.945 351.481 274.948C352.81 276.951 353.671 279.228 354 281.61L366.14 360.98L367.73 360.1L355.4 280.49C355.073 278.147 354.231 275.906 352.934 273.928C351.637 271.95 349.918 270.284 347.9 269.05C343.01 266.05 335.68 261.56 327.08 256.22C327.927 254.21 328.368 252.052 328.378 249.871C328.388 247.69 327.968 245.528 327.14 243.51L316.78 246.01Z" fill="#2F2D44"/>
<path d="M426.84 208.38C426.84 208.38 398.99 226.17 381.08 216.89C373.73 207.32 366.9 194.2 367 193.81C367.1 193.42 383 186.98 383 186.98L393.58 202.32L423.58 202.45C423.58 202.45 429.29 204.64 426.84 208.38Z" fill="#F7AB9D"/>
<path d="M437.73 203.66L429.21 207.92C429.21 207.92 422.53 208.49 422.44 205.84C422.35 203.19 430.58 195 431.76 194.76C432.94 194.52 437.82 196.28 438.25 196.76C438.68 197.24 439.81 203.1 439.81 203.1L437.73 203.66Z" fill="#EF515F"/>
<path d="M437.21 204.73C437.11 205.92 437.87 206.64 438.87 206.12C439.53 207.64 440.81 207.04 442.18 205.46C443.74 203.66 443.97 202.39 443.84 201.46C443.6 199.75 442.84 199.46 442.84 199.46C442.565 198.692 442.23 197.946 441.84 197.23C441.689 196.97 441.501 196.734 441.28 196.53C440.53 195.86 433.87 197.45 433.87 197.45L438.45 198.01L437.84 201.88C437.47 203.32 437.26 204.16 437.21 204.73Z" fill="#F09087"/>
<path d="M438.87 206.12C440.899 204.375 442.304 202.016 442.87 199.4C442.595 198.632 442.26 197.886 441.87 197.17C441.68 200.366 440.644 203.455 438.87 206.12Z" fill="#EF515F"/>
<path d="M432.9 194.63C432.9 194.63 438.01 193.54 439.43 194.96C440.85 196.38 443.13 204.96 441.71 206.13C440.29 207.3 437.3 198.32 437.3 198.32H433L432.9 194.63Z" fill="#F7AB9D"/>
<path d="M432.33 191.07C434.79 191.54 434.89 195.71 434.79 197.6C434.69 199.49 434.42 205.27 433.37 205.46C432.59 205.6 431.97 200.01 431.71 197.23C431.699 197.108 431.652 196.992 431.574 196.897C431.496 196.802 431.392 196.733 431.274 196.698C431.156 196.664 431.031 196.665 430.914 196.703C430.798 196.741 430.695 196.813 430.62 196.91C429.74 198.04 428.86 199.17 428.02 200.33C427.18 201.49 426.28 202.54 426.62 204.09C427.29 207.15 430.93 206.61 432.43 208.82C433.61 210.57 433.12 212.89 431.72 212.23C430.91 211.85 429.44 210.29 428.21 210.1C426.291 209.885 424.4 209.466 422.57 208.85C422.058 208.716 421.578 208.481 421.158 208.16C420.737 207.839 420.384 207.438 420.12 206.98C418.59 203.8 421.69 200.63 423.6 198.4C425.498 196.075 427.659 193.978 430.04 192.15C430.6 191.74 431.57 190.92 432.33 191.07Z" fill="#F7AB9D"/>
<path d="M373.86 165.79C378.78 167.63 391.14 195.14 391.14 195.14C391.14 195.14 375.09 201.25 370.69 206.22C365.43 193.44 360.6 184.77 360.89 177.81C361.18 170.85 365.67 162.71 373.86 165.79Z" fill="#CBEBFB"/>
<path d="M308.1 250.58L372.87 239.08L366.76 219.08L367.61 212.53L370.17 192.8C370.17 192.8 375.17 168.09 373.86 165.8C372.55 163.51 359.66 156.28 359.66 156.28C357.95 154.86 348.44 153.72 345.74 154.28C343.04 154.84 323.29 160.67 319.74 163.94C316.19 167.21 306.39 204.56 306 218.32C305.61 232.08 308.1 250.58 308.1 250.58Z" fill="white"/>
<path d="M328.5 223.48C328.93 225.39 366.76 219.05 366.76 219.05L367.61 212.5C358.32 213.88 328.14 221.83 328.5 223.48Z" fill="#CBEBFB"/>
<path d="M298.46 213.32C298.25 212.88 298.34 205.27 303.46 194.32C309.33 194.51 318.51 199.43 318.51 199.43L315.67 210.23C315.67 210.23 313.78 216.38 312.45 217.33C311.12 218.28 303 222.98 298.46 213.32Z" fill="#F09087"/>
<path d="M321.54 162.76C320.54 161.64 309.23 171.76 305.54 180.18C301.99 188.29 300.24 193.81 300.24 193.81C300.24 193.81 303.93 198.08 311.51 200.25C319.09 202.42 322.21 201.67 322.21 201.67C322.21 201.67 331.39 174.21 321.54 162.76Z" fill="#CBEBFB"/>
<path d="M341 222.47C341 222.47 327.35 224.02 321.82 224.27C316.29 224.52 308.1 224.82 303.2 219.52C298.3 214.22 298.2 211.52 299.86 208.8C301.52 206.08 307.32 205.45 311.86 207.03C316.4 208.61 323.27 212.18 326.94 213.03C330.244 213.672 333.583 214.119 336.94 214.37L341 222.47Z" fill="#F7AB9D"/>
<path d="M335.09 214.84C334.471 215.772 334.05 216.82 333.85 217.92C333.651 219.021 333.678 220.15 333.93 221.24C334.75 225.06 341.68 222.24 343.15 217.92C341 213.53 335.09 214.84 335.09 214.84Z" fill="#F09087"/>
<path d="M351.83 216.57C352.23 216.62 356.24 215.68 356.67 216.07C357.1 216.46 356.67 218.69 353.01 219.35C349.35 220.01 348.46 217.99 348.46 217.99C347.556 218.764 346.546 219.404 345.46 219.89C344.438 220.298 343.31 220.358 342.25 220.06C342.25 220.06 338.44 222.7 337.51 222.06C336.58 221.42 335.88 218.41 337.57 215.68C339.26 212.95 342.33 211.5 343.98 211.68C345.63 211.86 351.43 216.52 351.83 216.57Z" fill="#EF515F"/>
<path d="M335.09 214.84C335.29 213.63 336.89 214.47 336.89 214.47C336.742 214.058 336.734 213.609 336.865 213.192C336.997 212.775 337.262 212.412 337.62 212.16C338.1 211.84 339.35 212.68 339.35 212.68C339.35 212.68 338.75 210.85 339.42 210.4C340.09 209.95 341.63 210.4 341.63 210.4C341.63 210.4 342.09 210.13 342.74 209.8C343.754 209.611 344.802 209.74 345.74 210.17C347.948 211.438 349.717 213.35 350.81 215.65C350.869 215.771 350.902 215.903 350.904 216.037C350.907 216.172 350.88 216.305 350.826 216.428C350.772 216.551 350.691 216.661 350.59 216.749C350.489 216.837 350.369 216.903 350.24 216.94H350.11C349.946 216.987 349.772 216.988 349.608 216.942C349.444 216.896 349.296 216.805 349.18 216.68C347.68 215.06 344.82 212.81 344.4 212.96L343.3 213.35C343.4 213.52 347.05 219.98 346.47 220.79C345.89 221.6 345.47 221.62 344.6 220.69C343.155 218.795 341.819 216.818 340.6 214.77C340.6 214.77 342.98 221.41 342.53 222C342.08 222.59 341.81 222.85 341.01 222.36C340.21 221.87 338.01 216.44 338.01 216.44C338.01 216.44 339.28 223.15 338.08 223.44C336.88 223.73 334.88 216.06 335.09 214.84Z" fill="#F7AB9D"/>
<path d="M341.63 210.39C341.63 210.39 342.09 210.58 343.33 213.39L344.43 213L342.74 209.79C342.09 210.12 341.63 210.39 341.63 210.39Z" fill="#F09087"/>
<path d="M343.82 138.58C344.847 141.544 346.09 144.428 347.54 147.21L348.43 145.79L351.09 141.56L367.76 141.27H369.34C369.34 141.27 373.21 137.07 373.34 135.05C373.47 133.03 371.23 128.18 371.17 128.05C371.27 128.15 374.17 130.86 374.23 129.82C374.29 128.78 370.84 125.63 370.84 125.63C370.84 125.63 373.67 122.32 372.94 121.63C372.21 120.94 368.66 123.57 368.66 123.57C368.246 122.789 367.678 122.101 366.991 121.545C366.303 120.99 365.51 120.58 364.66 120.34C361.66 119.34 349.97 120.58 346.1 125.02C342.23 129.46 342.05 133.49 343.82 138.58Z" fill="#2F2D44"/>
<path d="M344.69 136.57C345.719 139.727 346.969 142.808 348.43 145.79L351.09 141.56L367.76 141.27L370.76 137.76C371.551 136.461 371.976 134.971 371.99 133.45C371.84 131.32 367.39 127.2 367.39 127.2C367.39 127.2 367.73 125.2 367.39 124.55C367.05 123.9 366.01 123.22 361.94 123.17C357.87 123.12 349.73 124.45 347.08 126.96C345.86 128.202 344.994 129.749 344.574 131.439C344.154 133.129 344.194 134.901 344.69 136.57Z" fill="#171826"/>
<path d="M357.66 163.37C357.66 163.37 359.03 176.01 357.78 176.43C356.53 176.85 355 173.09 355 172.53C355 171.97 354.86 163.21 354.86 163.21L357.66 163.37Z" fill="#1967A5"/>
<path d="M359.33 152.86C359.33 152.86 363.44 154.56 363.87 157.31C364.07 158.57 364.82 161.31 364.39 162.85C363.96 164.39 360.6 169.95 360.6 169.95C360.6 169.95 361.03 167.11 360.27 165.64C359.51 164.17 357.19 163.37 357.19 163.37C357.19 163.37 354.69 164.98 353.55 169.72C347.49 166.83 342.99 164.79 341.95 161.05C340.91 157.31 341.29 155.7 341.62 154.56C341.95 153.42 344.89 151.25 346.07 150.73C347.25 150.21 355.82 150.73 359.33 152.86Z" fill="#3985C3"/>
<path d="M362.07 159.06C362.313 158.532 362.402 157.946 362.328 157.37C362.253 156.793 362.019 156.249 361.65 155.8C360.37 154.04 355.21 151.44 352.84 151.25C350.47 151.06 346.02 151.68 345.93 153.67C345.84 155.66 354.4 163.23 362.07 159.06Z" fill="#1967A5"/>
<path d="M346.21 157.41C347.87 159.41 354.12 162.94 357.21 163.41C359.54 162.65 362.38 159.15 362.09 159.1C361.8 159.05 359.25 156.59 358.97 155.22C359.034 154.815 359.124 154.414 359.24 154.02C359.603 152.813 360.117 151.657 360.77 150.58C361.86 145.42 350.49 140.16 349.59 141.77C349.37 142.18 348.95 143.09 348.44 144.24C346.93 147.66 344.65 153.18 344.44 153.47C344.23 153.76 344.55 155.42 346.21 157.41Z" fill="#F09087"/>
<path d="M348.42 144.2C349.106 146.733 350.651 148.95 352.79 150.47C354.771 151.915 356.933 153.095 359.22 153.98C359.583 152.773 360.097 151.617 360.75 150.54C361.84 145.38 350.47 140.12 349.57 141.73C349.35 142.14 348.93 143.05 348.42 144.2Z" fill="#EF515F"/>
<path d="M360.25 159.2C360.91 159.67 357.62 161.34 356.48 161.34C355.34 161.34 347.75 157.93 348.03 157.34C348.31 156.75 356.63 160.18 356.63 160.18C356.63 160.18 359.33 158.57 360.25 159.2Z" fill="#EF515F"/>
<path d="M374.1 138.64C374.1 139.97 372.33 143.06 370.53 143.77C369.694 144.141 368.783 144.312 367.87 144.27C367.87 144.27 367.87 144 367.97 143.56C367.97 143.41 368.03 143.23 368.07 143.03C368.52 140.57 369.8 135.33 372.45 135.82C373.86 136.09 374.1 137.32 374.1 138.64Z" fill="#F09087"/>
<path d="M343.81 136.93C343.81 138.35 345.71 141.68 347.64 142.43C348.536 142.836 349.517 143.021 350.5 142.97C350.5 142.97 350.5 142.69 350.39 142.21C350.39 142.05 350.33 141.86 350.29 141.65C349.8 139 348.43 133.37 345.58 133.9C344.06 134.19 343.81 135.5 343.81 136.93Z" fill="#F09087"/>
<path d="M345 137.82C345 137.82 345.27 136.52 346.33 136.43C347.39 136.34 348.45 138.24 348.45 138.24C348.45 138.24 346.56 137.92 346.39 139.38C346.26 141.1 349.53 142.01 350.39 142.21C350.39 142.05 350.33 141.86 350.29 141.65C349.278 141.393 348.403 140.756 347.85 139.87C347.62 139.09 348.21 138.73 349.31 138.96C348.64 136.79 347.19 135.14 346.09 135.14C344.29 135.14 345 137.82 345 137.82Z" fill="#EF515F"/>
<path d="M349.19 134.63C349.19 134.63 349.19 135.52 349.29 136.94C349.35 138.2 349.44 139.88 349.57 141.73C349.83 145.35 352.03 147.23 354.57 148.79C356.89 150.21 362.9 153.1 365.84 151.44C368.31 150.04 369.84 140.02 370.3 135.7C370.38 134.89 370.43 134.29 370.43 133.97C370.48 131.97 366.83 128.43 366.83 128.43C366.303 129.464 365.562 130.373 364.657 131.099C363.752 131.825 362.703 132.35 361.58 132.64C357.81 133.59 349.19 134.63 349.19 134.63Z" fill="#F7AB9D"/>
<path d="M349.19 134.63C349.19 134.63 349.19 135.52 349.29 136.94C352.71 136.55 361.29 135.48 363.49 134.35C366.24 132.93 366.9 131.35 366.9 131.35L370.32 135.73C370.4 134.92 370.45 134.32 370.45 134C370.5 132 366.85 128.46 366.85 128.46C366.323 129.494 365.582 130.403 364.677 131.129C363.772 131.855 362.723 132.38 361.6 132.67C357.81 133.59 349.19 134.63 349.19 134.63Z" fill="#F09087"/>
<path d="M364.74 145.32C364.162 145.759 363.486 146.052 362.77 146.172C362.054 146.292 361.32 146.237 360.63 146.01C359.643 145.783 358.742 145.278 358.033 144.555C357.324 143.832 356.837 142.921 356.63 141.93C357.63 143.081 358.882 143.985 360.289 144.573C361.695 145.161 363.219 145.417 364.74 145.32Z" fill="#EF515F"/>
<path d="M363.68 137.19C363.68 137.19 362.45 139.19 362.78 140.69C363.11 141.729 363.797 142.619 364.72 143.2C364.72 143.2 363.3 141.21 363.68 137.19Z" fill="#EF515F"/>
<path d="M361.81 142.8C361.98 142.22 363.98 142.94 363.66 143.15C363.34 143.36 361.63 143.4 361.81 142.8Z" fill="#F09087"/>
<path d="M358.27 138.49C358.3 138.16 358.458 137.855 358.71 137.64L358.99 137.46C359.243 137.339 359.529 137.305 359.804 137.363C360.079 137.421 360.327 137.567 360.51 137.78C360.73 138.045 360.838 138.386 360.81 138.73C360.776 139.061 360.615 139.366 360.36 139.58L360.09 139.76C359.881 139.858 359.65 139.9 359.42 139.88C359.088 139.848 358.783 139.687 358.57 139.43C358.349 139.169 358.241 138.831 358.27 138.49Z" fill="#2F2D44"/>
<path d="M361.49 136.19C360.739 135.919 359.948 135.777 359.15 135.77C358.349 135.849 357.554 135.98 356.77 136.16C357.027 135.706 357.406 135.333 357.863 135.082C358.321 134.831 358.839 134.713 359.36 134.74C360.57 134.76 361.49 136.19 361.49 136.19Z" fill="#2F2D44"/>
<path d="M365.58 138.49C365.618 138.16 365.778 137.857 366.03 137.64L366.31 137.46C366.522 137.349 366.761 137.3 367 137.32C367.333 137.35 367.641 137.507 367.86 137.76C368.077 138.027 368.181 138.368 368.15 138.71C368.12 139.04 367.962 139.345 367.71 139.56L367.43 139.74C367.222 139.84 366.99 139.882 366.76 139.86C366.428 139.828 366.123 139.666 365.91 139.41C365.687 139.156 365.569 138.827 365.58 138.49Z" fill="#2F2D44"/>
<path d="M369.34 136.44C368.589 136.169 367.798 136.027 367 136.02C366.199 136.099 365.404 136.23 364.62 136.41C364.877 135.956 365.256 135.583 365.713 135.332C366.171 135.081 366.689 134.963 367.21 134.99C368.42 135.01 369.34 136.44 369.34 136.44Z" fill="#2F2D44"/>
<path d="M379.6 203.32H479.4C483.045 203.32 486 200.365 486 196.72V132.92C486 129.275 483.045 126.32 479.4 126.32L379.6 126.32C375.955 126.32 373 129.275 373 132.92V196.72C373 200.365 375.955 203.32 379.6 203.32Z" fill="#CBEBFB"/>
<path d="M382.6 203.32H482.4C486.045 203.32 489 200.365 489 196.72V132.92C489 129.275 486.045 126.32 482.4 126.32L382.6 126.32C378.955 126.32 376 129.275 376 132.92V196.72C376 200.365 378.955 203.32 382.6 203.32Z" fill="white"/>
<path d="M421.17 164.32H444.74C445.22 164.58 445.6 164.2 445.6 163.73C445.6 163.26 445.22 162.87 444.74 162.32H421.17C420.7 162.87 420.31 163.26 420.31 163.73C420.31 164.2 420.7 164.58 421.17 164.32Z" fill="#B6E4F9"/>
<path d="M421.17 169.32H444.74C444.847 169.343 444.959 169.342 445.066 169.315C445.172 169.288 445.271 169.236 445.355 169.165C445.438 169.093 445.504 169.003 445.546 168.901C445.589 168.8 445.607 168.69 445.6 168.58C445.6 168.11 445.22 167.72 444.74 167.32H421.17C420.7 167.72 420.31 168.11 420.31 168.58C420.303 168.69 420.321 168.8 420.364 168.901C420.406 169.003 420.472 169.093 420.555 169.165C420.639 169.236 420.738 169.288 420.844 169.315C420.951 169.342 421.063 169.343 421.17 169.32Z" fill="#B6E4F9"/>
<path d="M421.17 154.32H444.74C445.22 154.64 445.6 154.25 445.6 153.78C445.6 153.31 445.22 152.93 444.74 152.32H421.17C420.7 152.93 420.31 153.32 420.31 153.78C420.31 154.25 420.7 154.64 421.17 154.32Z" fill="#B6E4F9"/>
<path d="M421.17 159.32H444.74C444.844 159.356 444.956 159.366 445.064 159.347C445.173 159.328 445.275 159.282 445.361 159.213C445.447 159.144 445.514 159.055 445.556 158.953C445.598 158.851 445.613 158.74 445.6 158.63C445.6 158.16 445.22 157.78 444.74 157.32H421.17C420.7 157.78 420.31 158.16 420.31 158.63C420.3 158.739 420.317 158.849 420.359 158.949C420.402 159.05 420.469 159.138 420.554 159.207C420.639 159.275 420.74 159.321 420.848 159.341C420.955 159.361 421.066 159.354 421.17 159.32Z" fill="#B6E4F9"/>
<path d="M446.45 181.82C446.453 181.165 446.197 180.535 445.738 180.067C445.28 179.599 444.655 179.331 444 179.32H425.17C424.507 179.32 423.871 179.583 423.402 180.052C422.933 180.521 422.67 181.157 422.67 181.82C422.67 182.483 422.933 183.119 423.402 183.588C423.871 184.057 424.507 184.32 425.17 184.32H444C444.655 184.309 445.28 184.041 445.738 183.573C446.197 183.105 446.453 182.475 446.45 181.82Z" fill="#B6E4F9"/>
<path d="M411 217.32V220.32H452.07C453.19 207.24 447.33 189.06 445.16 182.32H425.49C429.26 202.32 425.55 217.32 425.55 217.32H411ZM433.72 201.79C433.72 197.99 435.72 194.91 438.17 194.91C440.62 194.91 442.62 197.99 442.62 201.79C442.62 205.59 440.62 208.66 438.17 208.66C435.72 208.66 433.72 205.58 433.72 201.79Z" fill="#CBEBFB"/>
<path d="M411 217.32V220.32H427.53C432.79 208.99 429.22 187.88 428.15 182.32H425.49C429.26 202.32 425.55 217.32 425.55 217.32H411Z" fill="#B6E4F9"/>
<path d="M495.6 203.32H595.4C599.045 203.32 602 200.365 602 196.72V132.92C602 129.275 599.045 126.32 595.4 126.32L495.6 126.32C491.955 126.32 489 129.275 489 132.92V196.72C489 200.365 491.955 203.32 495.6 203.32Z" fill="#CBEBFB"/>
<path d="M498.6 203.32H598.4C602.045 203.32 605 200.365 605 196.72V132.92C605 129.275 602.045 126.32 598.4 126.32L498.6 126.32C494.955 126.32 492 129.275 492 132.92V196.72C492 200.365 494.955 203.32 498.6 203.32Z" fill="white"/>
<path d="M537.13 164.32H560.7C561.17 164.58 561.56 164.2 561.56 163.73C561.56 163.26 561.17 162.87 560.7 162.32H537.13C536.65 162.87 536.27 163.26 536.27 163.73C536.27 164.2 536.65 164.58 537.13 164.32Z" fill="#B6E4F9"/>
<path d="M537.13 169.32H560.7C560.807 169.343 560.919 169.342 561.026 169.315C561.132 169.288 561.231 169.236 561.315 169.165C561.398 169.093 561.464 169.003 561.506 168.901C561.549 168.8 561.567 168.69 561.56 168.58C561.56 168.11 561.17 167.72 560.7 167.32H537.13C536.65 167.72 536.27 168.11 536.27 168.58C536.263 168.69 536.281 168.8 536.324 168.901C536.366 169.003 536.432 169.093 536.515 169.165C536.599 169.236 536.698 169.288 536.804 169.315C536.911 169.342 537.023 169.343 537.13 169.32Z" fill="#B6E4F9"/>
<path d="M537.13 154.32H560.7C561.17 154.64 561.56 154.25 561.56 153.78C561.56 153.31 561.17 152.93 560.7 152.32H537.13C536.65 152.93 536.27 153.32 536.27 153.78C536.27 154.25 536.65 154.64 537.13 154.32Z" fill="#B6E4F9"/>
<path d="M537.13 159.32H560.7C560.804 159.354 560.915 159.361 561.022 159.341C561.13 159.321 561.231 159.275 561.316 159.207C561.401 159.138 561.468 159.05 561.511 158.949C561.553 158.849 561.57 158.739 561.56 158.63C561.56 158.16 561.17 157.78 560.7 157.32H537.13C536.65 157.78 536.27 158.16 536.27 158.63C536.257 158.74 536.272 158.851 536.314 158.953C536.356 159.055 536.423 159.144 536.509 159.213C536.595 159.282 536.697 159.328 536.806 159.347C536.914 159.366 537.026 159.356 537.13 159.32Z" fill="#B6E4F9"/>
<path d="M562.41 181.82C562.411 181.491 562.348 181.166 562.222 180.862C562.097 180.558 561.913 180.282 561.681 180.049C561.448 179.817 561.172 179.633 560.868 179.508C560.564 179.382 560.239 179.319 559.91 179.32H541.13C540.467 179.32 539.831 179.583 539.362 180.052C538.893 180.521 538.63 181.157 538.63 181.82C538.63 182.483 538.893 183.119 539.362 183.588C539.831 184.057 540.467 184.32 541.13 184.32H559.91C560.239 184.321 560.564 184.258 560.868 184.132C561.172 184.007 561.448 183.823 561.681 183.591C561.913 183.358 562.097 183.082 562.222 182.778C562.348 182.474 562.411 182.149 562.41 181.82Z" fill="#B6E4F9"/>
<path d="M526 217.32V220.32H567.07C568.19 207.24 562.33 189.06 560.16 182.32H540.49C544.26 202.32 540.55 217.32 540.55 217.32H526ZM549.68 201.79C549.68 197.99 551.68 194.91 554.12 194.91C556.56 194.91 558.57 197.99 558.57 201.79C558.57 205.59 556.57 208.66 554.12 208.66C551.67 208.66 549.68 205.58 549.68 201.79Z" fill="#CBEBFB"/>
<path d="M526 217.32V220.32H542.53C547.79 208.99 544.22 187.88 543.15 182.32H540.49C544.26 202.32 540.55 217.32 540.55 217.32H526Z" fill="#B6E4F9"/>
<path d="M640 220.32H631V364.32H640V220.32Z" fill="#9F4835"/>
<path d="M550 220.32H541V364.32H550V220.32Z" fill="#9F4835"/>
<path d="M260 220.32V364.32H269V229.32H344V364.32H353V229.32H640V220.32H260Z" fill="#843528"/>
<path d="M346 228.32V285.32H388.09C390.427 285.32 392.669 284.392 394.323 282.74C395.977 281.088 396.907 278.847 396.91 276.51C396.91 271.157 399.036 266.023 402.82 262.237C406.604 258.451 411.737 256.323 417.09 256.32H565.36C569.81 256.321 574.146 257.722 577.756 260.324C581.365 262.926 584.064 266.598 585.47 270.82C586.878 275.042 589.579 278.715 593.19 281.317C596.801 283.919 601.139 285.32 605.59 285.32H640V228.32H346Z" fill="white"/>
<path d="M346 228.32H261V285.32H346V228.32Z" fill="#F9DEA6"/>
<path d="M153.89 322.7C159.29 345.7 174.06 363.32 189.69 363.32H295.08C336.55 354.51 332.58 284.92 318.37 275.83C315.686 274.115 312.783 272.769 309.74 271.83C303.598 269.863 297.008 269.783 290.82 271.6C290.82 271.6 290.38 241.38 278.6 230.98C256.25 211.25 212.46 215.15 184.45 230.04C182.203 231.233 180.067 232.493 178.04 233.82C150.77 251.68 148.5 299.69 153.89 322.7Z" fill="#EF515F"/>
<path d="M190.82 318.03C208.44 332.52 245.36 341.03 277.18 330.53C309 320.03 314.4 299.53 313.26 285.65C312.7 278.74 311.15 274.65 309.74 272.24C303.598 270.273 297.008 270.193 290.82 272.01C290.82 272.01 290.38 241.79 278.6 231.39C261.42 216.23 231.6 215.02 205.99 222.03C197.995 224.216 190.958 229.008 185.996 235.648C181.034 242.287 178.431 250.393 178.6 258.68V258.95C178.88 272.01 184.6 272.3 184.6 272.3C184.6 272.3 180.91 274.57 176.08 282.24C171.25 289.91 173.21 303.55 190.82 318.03Z" fill="#D3333B"/>
<path d="M203.32 344.17C203.32 344.17 203.75 359.08 190.96 357.38C177.28 355.55 157.73 330.96 158.96 302.83C161.51 296.83 166.3 301.52 172.17 311.78C184.15 332.66 196.5 331.38 203.32 344.17Z" fill="#F48F9C"/>
<path d="M271.64 244.6C271.64 244.6 275.26 253.26 275.9 256.1C276.54 258.94 277.25 262.1 276.12 264.1C267.88 261.83 262.76 260.1 262.76 260.1L256.59 248.6L271.64 244.6Z" fill="#F09087"/>
<path d="M275.29 267.32C275.29 267.32 278.98 261.32 273.68 257.1C267.68 252.27 260.99 258.8 262.12 263.25C263.25 267.7 270.55 272.53 275.29 267.32Z" fill="#F09087"/>
<path d="M261.65 217.32C264.89 218.52 273.22 241.5 275.1 248.6C266.54 251.1 257.78 254.6 257.78 254.6C257.78 254.6 250.48 243.12 250.48 232.27C250.48 221.42 253.84 214.42 261.65 217.32Z" fill="#F68E1E"/>
<path d="M268.09 261.22L264.61 264.7C263.748 263.639 262.772 262.677 261.7 261.83C260.495 261.355 259.152 261.373 257.96 261.88C257.2 262.35 257.13 263.3 258.05 263.58C259.03 263.893 259.924 264.431 260.66 265.15C260.84 265.37 263.4 268.39 264.75 268.74C266.518 268.957 268.303 269.007 270.08 268.89C270.08 268.89 273.49 262.92 268.09 261.22Z" fill="#EF515F"/>
<path d="M267.52 271.16C268.66 271.51 268.94 269.95 268.94 269.95C269.201 270.237 269.555 270.421 269.94 270.47C270.413 270.532 270.893 270.452 271.32 270.24C271.464 270.592 271.683 270.909 271.96 271.17C272.71 271.8 273.78 271.32 275.51 269.17C275.596 270.75 275.326 272.329 274.72 273.79C274.614 273.98 274.563 274.196 274.573 274.414C274.584 274.631 274.656 274.841 274.78 275.02C274.882 275.124 275.015 275.193 275.16 275.214C275.304 275.236 275.452 275.21 275.58 275.14C277.8 274.28 278.35 268.67 278.35 268.03C278.35 267.72 277.8 267.44 277.24 267.24C276.86 267.106 276.473 266.992 276.08 266.9C276.145 266.606 276.118 266.299 276.004 266.02C275.89 265.741 275.693 265.504 275.44 265.34C274.51 264.63 273.94 264.98 273.94 264.98C273.961 264.217 273.792 263.462 273.45 262.78C272.95 262.21 271.24 262.21 271.24 262.21C270.96 261.36 270.61 260.44 269.61 260.15C268.61 259.86 268.12 261.22 268.12 261.22C268.12 261.22 267.77 263.35 267.55 265.22C267.33 267.09 266.39 270.8 267.52 271.16Z" fill="#F7AB9D"/>
<path d="M274.75 275.02C275.242 274.494 275.647 273.893 275.95 273.24C276.759 271.342 277.188 269.303 277.21 267.24C276.83 267.106 276.443 266.992 276.05 266.9C276.05 266.9 276.14 267.19 275.48 269.17C275.566 270.75 275.296 272.329 274.69 273.79C274.584 273.98 274.533 274.196 274.543 274.414C274.554 274.631 274.626 274.841 274.75 275.02Z" fill="#F09087"/>
<path d="M271.29 270.24C271.434 270.592 271.653 270.909 271.93 271.17C272.71 270.49 273.64 268.99 273.72 265.72C273.351 267.425 272.509 268.992 271.29 270.24Z" fill="#F09087"/>
<path d="M268.94 269.95C269.201 270.237 269.555 270.421 269.94 270.47C270.963 268.263 271.351 265.815 271.06 263.4C270.65 265.1 268.94 269.95 268.94 269.95Z" fill="#F09087"/>
<path d="M260.78 310.72L262.2 311.9C262.416 312.08 262.584 312.312 262.687 312.575C262.79 312.837 262.825 313.121 262.79 313.4C262.665 315.608 262.665 317.822 262.79 320.03C262.86 322.16 265.19 327.14 265.48 329.77C265.77 332.4 264.48 335.82 263.19 338.51C261.9 341.2 258.64 343.03 258.64 343.03C258.64 343.03 256.16 343.17 255.52 342.32C257.15 333.8 258.43 312.32 260.78 310.72Z" fill="white"/>
<path d="M247.21 320.73C248.35 322.79 249.63 330.46 250.26 334.15C250.89 337.84 254.45 343.88 256.94 342.25C258.1 341.49 259.49 339.37 260.66 337.05C260.99 336.4 261.3 335.74 261.58 335.05C262.351 333.423 262.893 331.696 263.19 329.92C263.4 327.15 260.56 321.19 260.49 318.42C260.42 315.65 261.42 311.32 260.78 310.68C260.14 310.04 254.03 305.68 254.03 305.68C254.03 305.68 252.38 308.68 250.59 312.3C250.38 312.74 250.16 313.18 249.94 313.63C247.79 318.15 246.62 319.67 247.21 320.73Z" fill="#40405A"/>
<path d="M249.94 313.7C251.8 316.06 253.82 318.96 254.45 321.16C255.73 325.56 255.88 327.83 257.15 331.53C257.939 333.586 259.133 335.463 260.66 337.05C260.99 336.4 261.3 335.74 261.58 335.05C260.383 333.987 259.369 332.733 258.58 331.34C257.58 329.07 257.02 324.95 256.03 320.55C255.52 318.3 252.97 315.01 250.6 312.33C250.38 312.81 250.16 313.25 249.94 313.7Z" fill="#2F2D44"/>
<path d="M253.79 318.99L247 324.05C246.806 324.195 246.581 324.294 246.342 324.339C246.104 324.384 245.858 324.375 245.624 324.311C245.39 324.248 245.174 324.132 244.991 323.972C244.808 323.812 244.664 323.613 244.57 323.39C244.466 323.165 244.45 322.91 244.524 322.673C244.598 322.437 244.757 322.236 244.97 322.11L252.61 317.28C252.75 317.181 252.912 317.119 253.083 317.1C253.253 317.082 253.425 317.107 253.583 317.175C253.741 317.242 253.878 317.348 253.983 317.484C254.087 317.62 254.155 317.78 254.18 317.95C254.225 318.142 254.212 318.344 254.143 318.529C254.073 318.714 253.951 318.875 253.79 318.99Z" fill="white"/>
<path d="M257.76 328.08L254.5 330.52L252.19 332.24C251.774 332.625 251.314 332.961 250.82 333.24C250.528 333.357 250.205 333.371 249.905 333.278C249.604 333.185 249.345 332.991 249.17 332.73C248.12 331.03 251.73 329.49 252.78 328.82C254.04 328 255.307 327.187 256.58 326.38C256.807 326.224 257.086 326.164 257.357 326.213C257.628 326.263 257.869 326.418 258.025 326.645C258.181 326.872 258.241 327.151 258.192 327.422C258.142 327.693 257.987 327.934 257.76 328.09V328.08Z" fill="white"/>
<path d="M256.25 323.68L252.85 326.22L250.52 327.96C249.95 328.38 249.27 329.12 248.52 328.96C248.329 328.914 248.151 328.825 248 328.7C247.801 328.514 247.66 328.274 247.593 328.01C247.525 327.747 247.535 327.469 247.62 327.21C247.88 326.44 248.9 325.89 249.56 325.48L252 323.92L255.09 321.92C255.23 321.818 255.393 321.754 255.565 321.734C255.737 321.715 255.911 321.74 256.07 321.807C256.229 321.875 256.368 321.982 256.473 322.119C256.578 322.257 256.646 322.419 256.67 322.59C256.714 322.793 256.698 323.004 256.624 323.198C256.549 323.392 256.419 323.559 256.25 323.68Z" fill="white"/>
<path d="M269.68 364.32H312.77C313.004 364.322 313.235 364.268 313.444 364.163C313.652 364.058 313.834 363.905 313.972 363.717C314.111 363.529 314.203 363.31 314.241 363.08C314.278 362.849 314.261 362.613 314.19 362.39C314.1 362.13 314.01 361.85 313.9 361.57C313.54 360.298 312.744 359.193 311.65 358.45C308.273 356.927 305.066 355.053 302.08 352.86C300.294 351.542 298.588 350.119 296.97 348.6C295.27 347.27 291.38 346.6 287.39 346.6C286.84 346.6 286.28 346.6 285.73 346.6C281.2 346.76 276.89 347.7 275.85 349.36C274.42 351.65 272.02 357.92 270.67 361.57C270.07 363.21 269.68 364.32 269.68 364.32Z" fill="#40405A"/>
<path d="M285.73 346.6C288.57 349.9 292.13 353.68 294.79 355.32C299.43 358.19 301.96 358.65 304.46 364.32H306C305.219 362.456 304.089 360.759 302.67 359.32C300.21 357.14 293.49 353.17 290.08 349.57C289.22 348.67 288.3 347.63 287.41 346.57C286.84 346.58 286.28 346.58 285.73 346.6Z" fill="#2F2D44"/>
<path d="M303 354.59L299.09 357.32C298.888 357.455 298.648 357.522 298.405 357.512C298.162 357.501 297.929 357.413 297.74 357.26C297.61 357.155 297.506 357.022 297.434 356.872C297.363 356.721 297.325 356.557 297.325 356.39C297.325 356.223 297.363 356.059 297.434 355.908C297.506 355.758 297.61 355.625 297.74 355.52L301.4 352.63C301.593 352.484 301.828 352.405 302.07 352.405C302.312 352.405 302.547 352.484 302.74 352.63L303.02 352.83C303.152 352.936 303.258 353.071 303.33 353.225C303.403 353.378 303.439 353.545 303.437 353.715C303.435 353.884 303.395 354.051 303.319 354.203C303.243 354.354 303.134 354.487 303 354.59Z" fill="white"/>
<path d="M299.43 351.94L295.49 354.63C295.29 354.766 295.05 354.833 294.808 354.82C294.566 354.808 294.335 354.716 294.15 354.56C294.021 354.456 293.916 354.324 293.845 354.175C293.773 354.025 293.736 353.861 293.736 353.695C293.736 353.529 293.773 353.365 293.845 353.215C293.916 353.066 294.021 352.934 294.15 352.83L297.81 349.94C298.004 349.797 298.239 349.72 298.48 349.72C298.721 349.72 298.956 349.797 299.15 349.94L299.43 350.14C299.571 350.244 299.685 350.38 299.764 350.536C299.842 350.692 299.883 350.865 299.883 351.04C299.883 351.215 299.842 351.388 299.764 351.544C299.685 351.7 299.571 351.836 299.43 351.94Z" fill="white"/>
<path d="M269.68 364.32H312.77C313.016 364.305 313.255 364.234 313.468 364.112C313.682 363.99 313.864 363.82 314.002 363.616C314.139 363.412 314.228 363.179 314.26 362.935C314.293 362.691 314.269 362.443 314.19 362.21C314.1 361.93 314.01 361.62 313.9 361.32H270.67C270.07 363.11 269.68 364.32 269.68 364.32Z" fill="white"/>
<path d="M295.92 348.96L292.05 351.61C291.852 351.743 291.616 351.808 291.378 351.795C291.14 351.783 290.913 351.693 290.73 351.54C290.603 351.438 290.5 351.308 290.43 351.161C290.359 351.014 290.322 350.853 290.322 350.69C290.322 350.527 290.359 350.366 290.43 350.219C290.5 350.072 290.603 349.942 290.73 349.84L294.33 347C294.518 346.856 294.748 346.779 294.985 346.779C295.222 346.779 295.452 346.856 295.64 347L295.92 347.19C296.06 347.291 296.175 347.424 296.254 347.578C296.333 347.732 296.374 347.902 296.374 348.075C296.374 348.248 296.333 348.418 296.254 348.572C296.175 348.726 296.06 348.859 295.92 348.96Z" fill="white"/>
<path d="M200.2 248.58C200.29 259.09 200.95 280.3 202.2 281.72C203.45 283.14 255.98 283.52 257.5 281.62C259.02 279.72 250.2 263.82 250.2 263.82C250.837 263.58 251.442 263.261 252 262.87C252.57 262.4 251.34 260.41 251.34 260.41C252.076 260.245 252.779 259.957 253.42 259.56C253.71 259.18 251.42 256.25 251.42 256.25C251.42 256.25 258.42 232.19 259.47 229.25C260.52 226.31 262.88 218.74 261.65 217.32C260.79 216.32 255.98 214.01 253.16 212.7C251.96 212.14 251.16 211.77 251.16 211.77C251.16 211.77 227.04 207 226.16 206.96C225.05 207.194 223.954 207.495 222.88 207.86C217.11 209.66 205.71 213.52 205.07 214.1C204.17 214.87 200.1 238.07 200.2 248.58Z" fill="#FCB912"/>
<path d="M222.84 207.87C224.72 211.93 228.78 217.69 236.84 218.63C239.832 219.079 242.889 218.773 245.732 217.739C248.576 216.705 251.115 214.976 253.12 212.71C251.92 212.15 251.12 211.78 251.12 211.78C251.12 211.78 227 207.01 226.12 206.97C225.01 207.204 223.914 207.505 222.84 207.87Z" fill="#F68E1E"/>
<path d="M215 247.6C213.77 246.27 215.18 234.42 217.73 233C219.01 232.29 227.03 235.37 233.45 235.7C239.87 236.03 249.08 235.16 249.74 236.35C251.07 238.71 248.74 247.63 247.95 248.61C247.16 249.59 216.21 248.92 215 247.6Z" fill="#F68E1E"/>
<path d="M203.42 296.38C206.42 302.52 216.56 302.72 227.08 302.64H229.76C233.09 302.64 236.4 302.64 239.46 302.79C253.05 303.62 279.94 297.52 279.11 298.35C278.28 299.18 273.84 341.05 269.68 363.79C270.88 362.03 273.78 360.09 277.29 358.22L278.48 357.6C284.915 354.482 291.534 351.761 298.3 349.45L296.58 342.99C296.58 342.99 303.58 289.61 303.58 287.99C303.58 286.37 305.28 273.22 295.2 272.08C282.11 270.61 243.88 278.71 243.88 278.71C243.88 278.71 236.88 278.45 228.76 278.29H226.08C215.96 278.13 204.99 278.17 203.4 279.04C200.37 280.58 199.26 287.79 203.42 296.38Z" fill="#1A7DB9"/>
<path d="M279.11 298.32C279.31 297.81 282.44 292.07 282.01 290.98C281.58 289.89 279.31 294.25 279.31 294.25C279.31 294.25 277.89 289.3 276.47 290.49C275.05 291.68 279.11 298.32 279.11 298.32Z" fill="#1A68A4"/>
<path d="M228.06 292.19C232.87 292.26 237.69 291.89 242.5 291.59C247.31 291.29 252.13 291.21 256.94 290.95L269.86 290.24C271.98 290.127 274.097 289.997 276.21 289.85C278.358 289.605 280.518 289.475 282.68 289.46C284.51 289.52 286.07 290.06 286.46 292.02C286.64 293.779 286.508 295.557 286.07 297.27C285.39 301.49 284.77 305.71 284.13 309.94C282.84 318.52 281.53 327.1 280.29 335.7C279.21 343.18 278.29 350.7 277.29 358.19L278.48 357.57C279.13 353.85 279.83 350.14 280.48 346.42C281.32 341.42 282.12 336.42 282.91 331.42C284.34 322.49 285.68 313.55 287.06 304.62C287.4 302.427 287.733 300.243 288.06 298.07C288.426 296.25 288.594 294.396 288.56 292.54C288.532 291.774 288.323 291.025 287.951 290.354C287.579 289.684 287.055 289.11 286.42 288.68C284.98 287.78 283.3 287.89 281.68 287.95C272.76 288.3 263.84 288.64 254.93 289.05C250.41 289.26 245.93 289.62 241.4 289.8C236.87 289.98 232.46 290.1 228.03 290.61C227.82 290.614 227.621 290.701 227.476 290.852C227.33 291.003 227.251 291.205 227.255 291.415C227.259 291.624 227.346 291.824 227.497 291.969C227.648 292.115 227.85 292.194 228.06 292.19Z" fill="#1A68A4"/>
<path d="M226.1 278.17C226.1 278.81 226.19 279.44 226.23 280.07C226.46 283.81 226.69 287.55 226.84 291.3C226.99 295.05 227.03 298.77 227.08 302.5V302.64H229.76C229.81 298.89 229.76 295.13 229.59 291.38C229.42 287.63 229.25 283.82 228.93 280.05L228.78 278.25L226.1 278.17Z" fill="#1A68A4"/>
<path d="M293.66 281.1C292.66 282.38 296.21 290.62 298.2 290.19C300.19 289.76 301.9 283.19 301.33 281.53C300.76 279.87 294.65 279.82 293.66 281.1Z" fill="#1A68A4"/>
<path d="M190.68 296.87C194.37 302.12 210.28 308.66 222.35 313.34C234.42 318.02 244.09 326.84 244.09 326.84C244.09 326.84 248.35 326.13 252.33 320.84C254.33 318.18 255 314.24 255.17 311.01C255.17 310.43 255.17 309.87 255.22 309.35C255.232 308.014 255.165 306.678 255.02 305.35C243.52 298.96 207.3 279.78 203.42 278.88C202.107 278.555 200.769 278.344 199.42 278.25C198.648 278.19 197.872 278.19 197.1 278.25C194.463 278.469 192.017 279.715 190.29 281.72C186.42 286.21 187 291.61 190.68 296.87Z" fill="#3985C3"/>
<path d="M197.06 278.32C210.99 285.5 238.06 301.83 241.25 303.67C243.85 305.17 251.11 308.93 255.17 311.02C255.17 310.44 255.17 309.88 255.22 309.36C250.383 307.3 245.668 304.963 241.1 302.36C234.38 298.56 209.92 283.58 199.38 278.24C198.606 278.207 197.83 278.233 197.06 278.32Z" fill="#1A68A4"/>
<path d="M186.28 258.8C186.56 261.64 187.84 264.06 195.22 268.89C202.6 273.72 222.64 275.7 222.64 275.7L226.2 269.14L202.9 257.95L203.55 254.56L204.88 247.56L190.82 242.56C190.82 242.56 186 255.96 186.28 258.8Z" fill="#F09087"/>
<path d="M191.82 257.1C197.36 255.39 202.9 257.95 202.9 257.95L203.55 254.56C200.48 254.15 195.18 254.32 191.82 257.1Z" fill="#EF515F"/>
<path d="M205 214.11C209.18 212.61 212.53 223.91 211.43 231.77C210.33 239.63 205.5 251.49 205.63 251.08C205.76 250.67 186.74 243.77 186.74 243.77C186.74 243.77 197.77 216.71 205 214.11Z" fill="#F68E1E"/>
<path d="M223.93 267.77C223.113 268.541 222.462 269.471 222.019 270.503C221.575 271.535 221.347 272.647 221.35 273.77C221.27 277.68 228.66 276.54 231.07 272.64C230 267.84 223.93 267.77 223.93 267.77Z" fill="#F09087"/>
<path d="M239.83 273.26C240.21 273.4 244.33 273.4 244.66 273.87C244.99 274.34 244.09 276.43 240.35 276.24C236.61 276.05 236.24 273.87 236.24 273.87C235.194 274.42 234.077 274.82 232.92 275.06C231.829 275.219 230.717 275.019 229.75 274.49C229.75 274.49 225.44 276.19 224.68 275.34C223.92 274.49 223.93 271.41 226.2 269.14C228.47 266.87 231.78 266.14 233.35 266.73C234.92 267.32 239.45 273.12 239.83 273.26Z" fill="#EF515F"/>
<path d="M223.93 267.77C224.4 266.63 225.77 267.77 225.77 267.77C225.72 267.337 225.813 266.899 226.035 266.523C226.257 266.148 226.596 265.855 227 265.69C227.54 265.49 228.57 266.59 228.57 266.59C228.57 266.59 228.4 264.67 229.16 264.39C229.92 264.11 231.31 264.89 231.31 264.89C231.31 264.89 231.82 264.72 232.53 264.55C233.567 264.591 234.565 264.958 235.38 265.6C237.56 267.35 238.7 270.47 239.08 272.08C239.113 272.211 239.116 272.348 239.089 272.481C239.063 272.613 239.008 272.738 238.928 272.847C238.848 272.956 238.744 273.046 238.625 273.11C238.507 273.175 238.375 273.212 238.24 273.22H238.1C237.929 273.226 237.759 273.186 237.61 273.103C237.46 273.02 237.335 272.898 237.25 272.75C236.16 270.83 233.89 267.99 233.44 268.04L232.28 268.17C232.34 268.36 234.43 275.48 233.68 276.17C232.93 276.86 232.52 276.75 231.88 275.65C230.897 273.479 230.042 271.251 229.32 268.98C229.32 268.98 230.13 275.98 229.56 276.46C228.99 276.94 228.66 277.12 228 276.46C227.34 275.8 226.43 270.02 226.43 270.02C226.43 270.02 226.15 276.84 224.92 276.84C223.69 276.84 223.45 268.9 223.93 267.77Z" fill="#F7AB9D"/>
<path d="M231.31 264.93C231.31 264.93 231.71 265.21 232.31 268.23L233.47 268.1L232.56 264.59C231.82 264.76 231.31 264.93 231.31 264.93Z" fill="#F09087"/>
<path d="M308.78 244.03L307.01 242.32L252.61 242.75L240.82 278.26L242.1 280.04L308.78 244.03Z" fill="#40405A"/>
<path d="M308.78 244.32L253.82 244.54L242.1 280.33L296.78 278.7L308.78 244.32Z" fill="#40405A"/>
<path d="M241.97 280.32H208V277.32H241.64L241.97 280.32Z" fill="#2F2D44"/>
<path d="M270.92 266.32H281.39C281.991 266.321 282.578 266.141 283.075 265.804C283.573 265.467 283.958 264.988 284.18 264.43C284.361 263.975 284.428 263.482 284.375 262.995C284.322 262.507 284.15 262.041 283.875 261.635C283.6 261.23 283.229 260.898 282.796 260.668C282.363 260.439 281.88 260.32 281.39 260.32H270.92C270.319 260.319 269.732 260.499 269.235 260.836C268.737 261.173 268.352 261.652 268.13 262.21C267.949 262.665 267.882 263.158 267.935 263.645C267.988 264.133 268.16 264.599 268.435 265.005C268.71 265.41 269.081 265.742 269.514 265.972C269.947 266.201 270.43 266.32 270.92 266.32Z" fill="#2F2D44"/>
<path d="M225.89 206.97C225.89 206.97 229.3 216.4 239.27 216.24C243.567 216.27 247.717 214.677 250.89 211.78C250.89 211.78 246.67 209.9 246.08 208.14C245.897 206.739 245.937 205.318 246.2 203.93C246.54 201.21 247.14 198.28 247.14 198.28L235.86 192.28C235.86 192.28 235.57 194.28 235 196.57C234.32 199.35 233.23 202.66 231.76 203.75C229.942 205.059 227.971 206.141 225.89 206.97Z" fill="#F09087"/>
<path d="M235 196.62C236.075 198.522 237.574 200.151 239.38 201.38C241.367 202.857 243.732 203.741 246.2 203.93C246.54 201.21 247.14 198.28 247.14 198.28L235.86 192.28C235.86 192.28 235.57 194.32 235 196.62Z" fill="#EF515F"/>
<path d="M259.28 190.05C259.28 191.23 257.71 193.97 256.12 194.6C255.376 194.931 254.564 195.082 253.75 195.04C253.75 195.04 253.75 194.81 253.85 194.42C253.85 194.28 253.85 194.12 253.93 193.95C254.33 191.76 255.47 187.11 257.82 187.55C259.07 187.78 259.28 188.87 259.28 190.05Z" fill="#F09087"/>
<path d="M263.83 182.76C263.83 182.76 252.37 192.09 227.83 189.3C236.27 181.39 250.05 174.2 263.83 182.76Z" fill="#2F2D44"/>
<path d="M254.83 190.77C255.763 190.1 256.58 189.283 257.25 188.35C257.96 187.17 257.15 182.53 257.15 182.53C257.15 182.53 259.38 185.08 259.47 184.23C259.56 183.38 256.73 179.31 256.73 179.31C256.73 179.31 257.73 176.18 257.25 175.76C256.77 175.34 255.83 177.18 255.83 177.18C255.83 177.18 254.12 173.18 250.34 172.77C246.56 172.36 234.81 175.19 232.68 180.16C230.55 185.13 232.53 190.81 232.58 190.96C232.63 191.11 246.36 194.41 254.83 190.77Z" fill="#9F4835"/>
<path d="M235.8 188.92C235.8 188.92 235.85 189.59 235.96 190.82C235.96 191.25 236.04 191.76 236.09 192.33C236.154 193.655 236.555 194.942 237.255 196.069C237.955 197.196 238.931 198.125 240.09 198.77C243.09 200.66 246.25 202.18 250.22 202.08C253.38 202.01 255.17 191.69 255.77 187.47C255.93 186.38 256 185.7 256 185.7C254.668 184.618 253.543 183.303 252.68 181.82C249.75 184.94 240.47 183.62 240.47 183.62C240.499 184.272 240.369 184.92 240.09 185.51C239.62 186.65 237.73 186.51 237.73 186.51L237.44 188.31L235.8 188.92Z" fill="#F7AB9D"/>
<path d="M235.8 188.92C235.8 188.92 235.85 189.59 235.96 190.82C236.253 190.734 236.54 190.631 236.82 190.51C238.19 189.89 238.37 189.31 238.41 187.45C239.41 187.67 240.81 187.63 241.41 185.14C246.86 186.78 249.56 185.23 252.22 183.37C253.034 185.002 254.236 186.41 255.72 187.47C255.88 186.38 255.95 185.7 255.95 185.7C254.618 184.618 253.493 183.303 252.63 181.82C249.7 184.94 240.42 183.62 240.42 183.62C240.449 184.272 240.319 184.92 240.04 185.51C239.57 186.65 237.68 186.51 237.68 186.51L237.39 188.31L235.8 188.92Z" fill="#F09087"/>
<path d="M244.29 189.94C244.32 189.61 244.478 189.305 244.73 189.09L245.01 188.91C245.264 188.789 245.551 188.755 245.826 188.815C246.102 188.875 246.349 189.024 246.53 189.24C246.745 189.498 246.85 189.831 246.822 190.166C246.794 190.501 246.635 190.811 246.38 191.03L246.1 191.21C245.892 191.31 245.66 191.352 245.43 191.33C245.098 191.298 244.793 191.137 244.58 190.88C244.472 190.75 244.391 190.6 244.341 190.439C244.291 190.278 244.274 190.108 244.29 189.94Z" fill="#2F2D44"/>
<path d="M251.6 189.94C251.634 189.609 251.795 189.304 252.05 189.09L252.32 188.91C252.529 188.811 252.76 188.769 252.99 188.79C253.322 188.822 253.627 188.983 253.84 189.24C253.949 189.367 254.032 189.514 254.083 189.673C254.135 189.832 254.154 190 254.14 190.166C254.126 190.333 254.079 190.495 254.002 190.643C253.925 190.792 253.819 190.923 253.69 191.03L253.42 191.21C253.211 191.308 252.98 191.35 252.75 191.33C252.418 191.298 252.113 191.136 251.9 190.88C251.679 190.619 251.571 190.281 251.6 189.94Z" fill="#2F2D44"/>
<path d="M249.7 188.64C249.7 188.64 248.47 190.64 248.8 192.14C249.13 193.179 249.817 194.069 250.74 194.65C250.74 194.65 249.32 192.66 249.7 188.64Z" fill="#EF515F"/>
<path d="M250.76 196.73C250.181 197.167 249.504 197.457 248.789 197.576C248.073 197.694 247.339 197.637 246.65 197.41C245.664 197.182 244.763 196.677 244.054 195.954C243.346 195.231 242.858 194.321 242.65 193.33C243.65 194.481 244.902 195.386 246.309 195.976C247.715 196.565 249.238 196.823 250.76 196.73Z" fill="#EF515F"/>
<path d="M247.83 194.25C248 193.67 249.99 194.39 249.67 194.61C249.35 194.83 247.65 194.85 247.83 194.25Z" fill="#F09087"/>
<path d="M247.39 187.01C246.64 186.734 245.849 186.589 245.05 186.58C244.249 186.659 243.454 186.79 242.67 186.97C242.929 186.518 243.308 186.146 243.765 185.895C244.222 185.645 244.739 185.525 245.26 185.55C246.47 185.57 247.39 187.01 247.39 187.01Z" fill="#2F2D44"/>
<path d="M255.28 187.26C254.53 186.984 253.739 186.839 252.94 186.83C252.139 186.91 251.344 187.041 250.56 187.22C250.817 186.766 251.196 186.393 251.653 186.142C252.111 185.891 252.629 185.773 253.15 185.8C254.36 185.82 255.28 187.26 255.28 187.26Z" fill="#2F2D44"/>
<path d="M242 192.03C241.722 191.657 241.52 191.233 241.407 190.781C241.293 190.33 241.271 189.86 241.34 189.4C241.4 189.118 241.521 188.852 241.693 188.62C241.866 188.389 242.086 188.198 242.34 188.06C243.839 187.419 245.506 187.282 247.09 187.67C247.431 187.734 247.755 187.866 248.044 188.059C248.333 188.251 248.58 188.5 248.77 188.79C249.02 189.278 249.142 189.821 249.123 190.369C249.103 190.917 248.944 191.451 248.66 191.92C248.436 192.385 248.099 192.786 247.68 193.086C247.26 193.387 246.772 193.577 246.26 193.64H245.79C245.074 193.71 244.352 193.599 243.69 193.318C243.028 193.037 242.447 192.594 242 192.03ZM242.71 188.71C242.549 188.796 242.409 188.917 242.3 189.064C242.191 189.211 242.116 189.381 242.08 189.56C242.001 190.271 242.194 190.986 242.62 191.56C243.43 192.73 245.03 192.9 246.21 192.84C246.595 192.779 246.959 192.625 247.271 192.391C247.582 192.158 247.833 191.852 248 191.5C248.219 191.144 248.344 190.737 248.364 190.319C248.383 189.901 248.296 189.485 248.11 189.11C247.811 188.708 247.372 188.434 246.88 188.34C246.367 188.211 245.839 188.151 245.31 188.16C244.416 188.141 243.529 188.329 242.72 188.71H242.71Z" fill="#2F2D44"/>
<path d="M252 193.64C251.489 193.575 251.002 193.383 250.583 193.083C250.164 192.783 249.826 192.383 249.6 191.92C249.316 191.451 249.157 190.917 249.137 190.369C249.118 189.821 249.24 189.278 249.49 188.79C249.682 188.5 249.931 188.251 250.221 188.058C250.512 187.866 250.838 187.734 251.18 187.67C252.764 187.283 254.43 187.42 255.93 188.06C256.183 188.198 256.404 188.389 256.577 188.62C256.749 188.852 256.87 189.118 256.93 189.4C257.002 189.86 256.981 190.33 256.868 190.782C256.754 191.234 256.551 191.658 256.27 192.03C255.825 192.594 255.247 193.038 254.586 193.321C253.926 193.604 253.205 193.717 252.49 193.65L252 193.64ZM251.37 188.39C250.882 188.486 250.447 188.76 250.15 189.16C249.962 189.536 249.873 189.954 249.892 190.374C249.911 190.795 250.038 191.203 250.26 191.56C250.426 191.91 250.675 192.214 250.985 192.445C251.295 192.677 251.658 192.83 252.04 192.89C253.24 192.95 254.83 192.78 255.63 191.61C256.063 191.038 256.259 190.322 256.18 189.61C256.144 189.431 256.069 189.261 255.96 189.114C255.851 188.967 255.711 188.846 255.55 188.76C254.733 188.396 253.844 188.225 252.95 188.26C252.427 188.237 251.902 188.281 251.39 188.39H251.37Z" fill="#2F2D44"/>
<path d="M241.84 189.63C241.917 189.63 241.993 189.605 242.054 189.558C242.116 189.511 242.16 189.445 242.18 189.37C242.195 189.323 242.201 189.273 242.197 189.223C242.192 189.174 242.178 189.126 242.155 189.082C242.131 189.038 242.099 188.999 242.061 188.968C242.022 188.937 241.978 188.914 241.93 188.9C241.93 188.9 241.75 188.84 235.09 188.03C234.992 188.019 234.894 188.045 234.815 188.105C234.737 188.165 234.685 188.253 234.67 188.35C234.663 188.399 234.666 188.45 234.679 188.498C234.692 188.546 234.715 188.591 234.745 188.63C234.776 188.67 234.815 188.702 234.858 188.726C234.902 188.75 234.95 188.765 235 188.77C237.57 189.08 241.48 189.57 241.73 189.62L241.84 189.63Z" fill="#2F2D44"/>
<path d="M227.85 189.32C227.85 189.32 233.43 183.54 245.55 181.55C257.67 179.56 263.68 182.71 263.83 182.78C262.6 180.04 258.24 178.05 258.24 178.05C258.24 178.05 257.8 176.33 257.18 174.53C256.813 173.347 256.313 172.21 255.69 171.14C254.45 169.34 244.69 167.45 240.44 168.58C236.19 169.71 230.78 175.68 230.12 176.91C229.77 177.56 230 179.16 230.29 180.54C230.58 181.92 230.88 182.88 230.88 182.88L227.85 189.32Z" fill="#40405A"/>
<path d="M230.29 180.52C230.55 181.78 230.88 182.86 230.88 182.86C235.103 181.073 239.448 179.586 243.88 178.41C248.581 177.162 253.509 177.032 258.27 178.03C258.27 178.03 257.83 176.31 257.21 174.51C254.092 173.733 250.856 173.547 247.67 173.96C240.93 174.87 232.34 179.4 230.29 180.52Z" fill="#2F2D44"/>
<path d="M241.39 169.08C240.82 169.51 242.95 171.08 243.71 171.17C244.47 171.26 248.77 170.74 248.92 170.27C249.07 169.8 242 168.66 241.39 169.08Z" fill="#2F2D44"/>
<path d="M230.4 188.65C230.4 190.08 232.3 193.4 234.23 194.16C235.126 194.566 236.107 194.751 237.09 194.7C237.09 194.7 237.09 194.41 236.98 193.94C236.98 193.77 236.92 193.58 236.88 193.37C236.4 190.73 235.02 185.1 232.17 185.63C230.65 185.91 230.4 187.23 230.4 188.65Z" fill="#F7AB9D"/>
<path d="M231.59 189.55C231.59 189.55 231.86 188.25 232.92 188.15C233.98 188.05 235.04 189.97 235.04 189.97C235.04 189.97 233.15 189.64 232.98 191.1C232.85 192.83 236.12 193.73 236.98 193.94C236.98 193.77 236.92 193.58 236.88 193.37C235.868 193.113 234.993 192.476 234.44 191.59C234.21 190.81 234.8 190.45 235.9 190.68C235.24 188.51 233.78 186.86 232.68 186.86C230.88 186.86 231.59 189.55 231.59 189.55Z" fill="#EF515F"/>
<path d="M135.85 267.92L126 290.59L116.28 282.07L109.83 283.92C109.83 283.92 113.55 297.8 121.19 304.92C128.83 312.04 137.95 302.84 142.07 294.54C148.6 281.32 142.66 266.66 135.85 267.92Z" fill="#047A86"/>
<path d="M113.78 275.58C113.78 275.58 116.51 279.42 116.94 281.42L117.37 283.42C116.212 283.997 114.951 284.337 113.66 284.42C112.907 284.435 112.165 284.238 111.52 283.85C110.63 284.043 109.719 284.114 108.81 284.06C108.45 283.85 107.74 280.92 107.74 280.92L113.78 275.58Z" fill="#EF515F"/>
<path d="M108.68 280.32C108.68 280.32 107.68 279.47 106.95 279.6C106.22 279.73 103.19 283.27 103.56 283.66C103.93 284.05 105.84 282.88 107.14 281.17C107.94 281.37 108.56 281.5 108.56 281.5L108.68 280.32Z" fill="#EF515F"/>
<path d="M106.61 285.13C107.45 285.03 109.21 281.49 109.21 281.49C109.21 281.49 109.12 286.11 109.86 285.72C110.6 285.33 111.8 279.82 111.8 279.82C111.8 279.82 111.34 286.21 112.26 285.62C113.18 285.03 114 279.32 114 279.32C114 279.32 114.13 278.17 114.27 276.8C114.299 276.568 114.267 276.333 114.177 276.118C114.088 275.902 113.944 275.713 113.76 275.57C113.718 275.533 113.669 275.505 113.615 275.489C113.562 275.474 113.505 275.471 113.45 275.48C113.042 275.552 112.669 275.753 112.384 276.054C112.1 276.355 111.919 276.739 111.87 277.15C110.3 277.15 110.21 277.74 109.87 279.02C108.75 278.82 108.66 279.22 108.11 280.1C107.56 280.98 105.78 285.23 106.61 285.13Z" fill="#F7AB9D"/>
<path d="M115.6 283.46C115.88 283.579 116.181 283.64 116.485 283.64C116.789 283.64 117.09 283.579 117.37 283.46C118.19 283.1 118.52 282.23 118.94 280.87C119.24 279.87 118.51 277.3 118.51 277.02C118.51 276.74 118.44 274.66 117.87 274.38C117.3 274.1 116.58 276.09 116.58 277.3C116.58 277.4 116.58 277.51 116.58 277.62C116.662 278.258 116.582 278.907 116.348 279.506C116.114 280.105 115.733 280.636 115.24 281.05C115.054 281.195 114.897 281.375 114.78 281.58C114.69 281.754 114.639 281.947 114.633 282.143C114.626 282.34 114.663 282.535 114.742 282.715C114.82 282.896 114.938 283.056 115.087 283.185C115.235 283.314 115.411 283.408 115.6 283.46Z" fill="#F7AB9D"/>
<path d="M40.33 340.13L48.41 350.58L55.82 345.91L64.47 340.46L72.16 335.62L61.47 323.74L56.15 327.87L48.86 333.52L40.33 340.13Z" fill="#F09087"/>
<path d="M56.15 327.86C58.28 331.11 61.45 335.86 64.47 340.45L72.16 335.61L61.47 323.74L56.15 327.86Z" fill="#EF515F"/>
<path d="M40.33 340.12L48.41 350.58L55.82 345.9C53.01 340.9 50.13 335.8 48.82 333.51L40.33 340.12Z" fill="white"/>
<path d="M8.33002 338.97L15.33 344.87L16.27 345.66L22.2 350.66L37.56 363.56C38.3533 363.038 39.0559 362.389 39.64 361.64C41.56 359.3 43.33 355.9 44.91 354.64C47.04 352.93 52.48 352.64 52.48 352.64C52.48 352.64 50.65 348.31 48.79 343.72L48.37 342.72C47.37 340.16 46.37 337.61 45.69 335.78C43.41 337.5 33.18 340.36 31.14 340.47C29.73 340.54 27.44 339.79 24.14 338.87C22.62 338.46 20.89 338.01 18.93 337.58C16.2804 336.994 13.5244 337.105 10.93 337.9C10.0226 338.148 9.1493 338.508 8.33002 338.97Z" fill="#2F2D44"/>
<path d="M15.36 344.87L16.3 345.66C17.5635 344.775 18.9615 344.1 20.44 343.66C22.64 343.23 32.22 346.66 33.92 346.96C36.05 347.33 45.99 344.5 48.82 343.67L48.4 342.67C45.22 343.51 36.4 345.79 34.07 345.86C31.17 345.94 21.89 341.53 19.07 342.86C17.7843 343.435 16.5441 344.107 15.36 344.87Z" fill="#2F2D44"/>
<path d="M8.33002 338.97L37.59 363.54C38.3833 363.018 39.0859 362.369 39.67 361.62L11 337.83C10.0651 338.095 9.16789 338.478 8.33002 338.97Z" fill="white"/>
<path d="M8.33002 338.97L22.23 350.64C23.3981 348.928 24.174 346.979 24.5024 344.932C24.8309 342.886 24.7037 340.792 24.13 338.8C22.61 338.39 20.88 337.94 18.92 337.51C16.2704 336.924 13.5144 337.035 10.92 337.83C10.0128 338.101 9.14275 338.484 8.33002 338.97Z" fill="white"/>
<path d="M154.57 363.16C154.57 363.16 132.96 366.73 123.7 362.93C114.44 359.13 86.17 331.32 86.17 331.32L70.5 340.32L59.09 322.79C59.09 322.79 83.32 302.6 86.17 301.17C89.02 299.74 152.91 355.09 154.57 363.16Z" fill="#2F2D44"/>
<path d="M175.52 332.32L172.81 317.19C179.37 292.79 181.37 279.09 177.51 269.82C173.86 261.03 172.38 257.69 169.38 256.69C167.713 256.264 166.008 255.999 164.29 255.9C160.46 255.57 156.2 255.48 156.2 255.48C156.2 255.48 149.69 257.55 149.12 258.12C148.77 258.47 143.95 261.21 140.21 263.72C137.84 265.32 135.9 266.81 135.85 267.54C135.71 269.39 133.71 280.95 133.57 282.38C133.43 283.81 131 289.51 130.14 293.38C129.28 297.25 135.66 308.27 135.94 308.69C135.352 310.792 134.617 312.851 133.74 314.85C131.01 321.85 126.74 332.34 126.74 332.34L175.52 332.32Z" fill="#02B8A6"/>
<path d="M127.11 299.29L125.95 301.77L85.58 290.3L78.58 246.26L81.58 246.69L88.44 287.44L127.11 299.29Z" fill="#2F2D44"/>
<path d="M56.61 343.45L65.63 352.24L77.74 340.56L84.53 334L91.11 327.67L80.69 313.63L72.75 324.41L66.89 331.31L56.61 343.45Z" fill="#F7AB9D"/>
<path d="M72.75 324.41L84.53 334L91.11 327.67L80.69 313.63L72.75 324.41Z" fill="#EF515F"/>
<path d="M56.61 343.44L65.61 352.24L77.72 340.55C75.38 338.5 69.6 333.61 66.87 331.31L56.61 343.44Z" fill="white"/>
<path d="M74.82 319.13C74.82 319.13 79.37 323.13 85.08 328.05L86.56 329.32L89.17 331.55C93.04 328.55 100.1 319.23 100.1 319.23C100.1 319.23 100.53 319.89 101.32 321.04C106.1 328.04 123.94 353.53 136.32 360.64C150.68 368.93 168.07 365.64 173.59 355.95C176.59 350.67 176.92 344.12 176.59 339.25C176.444 336.917 176.11 334.599 175.59 332.32L151.52 332.48C151.52 332.48 106.76 290.87 100.96 293.08C95.16 295.29 74.82 319.13 74.82 319.13Z" fill="#40405A"/>
<path d="M85.08 328.43L86.56 329.7C90.62 325.99 104.46 311.54 106.06 310.12C111.2 312.37 115.69 317.61 129.61 334.12C138.74 344.94 145.61 349.72 150.36 351.54C152.111 352.235 154.037 352.353 155.86 351.876C157.682 351.4 159.304 350.353 160.49 348.89C160.709 348.622 160.903 348.334 161.07 348.03C161.07 348.03 165.46 340.86 165.78 332.84C156.15 332.94 151.45 332.89 151.45 332.89C151.45 332.89 149.08 342.09 156.71 346.81C156.95 346.96 157.147 347.169 157.284 347.416C157.421 347.664 157.493 347.942 157.493 348.225C157.493 348.508 157.421 348.786 157.284 349.034C157.147 349.281 156.95 349.49 156.71 349.64C155.65 350.32 155.36 350.18 155.36 350.18C155.36 350.18 150.11 351.03 142.09 343.65C134.07 336.27 119.35 318.65 116.62 315.82C112.44 311.54 107.52 308.33 105.16 307.58C100.1 312.2 88.3 325.32 85.08 328.43Z" fill="#2F2D44"/>
<path d="M100.1 319.61C100.1 319.61 100.53 320.27 101.32 321.42L104.88 315.58L100.1 319.61Z" fill="#2F2D44"/>
<path d="M100 295.8C102.38 295.33 105 297.35 104.84 298.8C104.68 300.25 95.4 303.56 94.84 301.99C94.28 300.42 97.82 296.23 100 295.8Z" fill="#2F2D44"/>
<path d="M29.16 354.75L38.07 356.93L39.27 357.23L46.79 359.08L66.27 363.86C66.7497 363.043 67.0878 362.15 67.27 361.22C67.97 358.28 68.05 354.44 68.91 352.61C70.07 350.14 74.81 347.45 74.81 347.45C74.81 347.45 71.25 344.37 67.55 341.08L66.73 340.34C64.67 338.5 62.66 336.66 61.26 335.34C59.97 337.89 52.06 344.99 50.26 345.98C49.03 346.66 46.64 346.98 43.26 347.66C41.71 347.96 39.95 348.32 38.01 348.81C35.3865 349.448 32.9741 350.757 31.01 352.61C30.3062 353.243 29.6847 353.962 29.16 354.75Z" fill="#40405A"/>
<path d="M38.07 356.93L39.27 357.23C40.0138 355.88 40.9692 354.658 42.1 353.61C43.88 352.25 54 351.1 55.65 350.61C57.73 350 65.39 343.07 67.56 341.08L66.74 340.34C64.26 342.51 57.39 348.44 55.3 349.54C52.73 350.89 42.45 351.04 40.46 353.46C39.5766 354.554 38.7777 355.714 38.07 356.93Z" fill="#2F2D44"/>
<path d="M29.16 354.75L66.27 363.86C66.7497 363.043 67.0878 362.15 67.27 361.22L31 352.57C30.2971 353.216 29.6789 353.949 29.16 354.75Z" fill="white"/>
<path d="M29.16 354.75L46.79 359.08C47.0814 357.029 46.917 354.938 46.3086 352.957C45.7002 350.977 44.6627 349.154 43.27 347.62C41.72 347.92 39.96 348.28 38.02 348.77C35.3965 349.408 32.9841 350.717 31.02 352.57C30.3101 353.215 29.6851 353.947 29.16 354.75Z" fill="white"/>
<path d="M130.71 303.02C131.789 303.352 132.831 303.794 133.82 304.34C154.92 316.34 173.58 315.98 176.19 313.34C178.98 310.55 183.34 298.2 183.19 282.89C182.94 261.44 171.52 255.09 168.98 258.36C165.45 262.9 165.28 291.84 165.28 291.84C164.529 292.381 163.729 292.85 162.89 293.24C161.89 293.64 162.64 295.33 162.64 295.33C162.64 295.33 143.07 293.33 137.55 291.4C135.22 290.58 132.55 292.93 132.34 292.93L129.11 297.2C129.11 297.2 126.85 301.76 130.71 303.02Z" fill="#008EA6"/>
<path d="M130.71 303.02C132.28 303.16 134.28 303.16 137.13 298.6C139.98 294.04 137.62 291.53 137.53 291.43C135.2 290.61 132.53 292.96 132.32 292.96L129.09 297.23C129.09 297.23 126.85 301.76 130.71 303.02Z" fill="#00818D"/>
<path d="M165.34 295.32C165.34 295.32 172.95 298.58 172.23 300.39C171.51 302.2 166.79 298.39 166.79 298.39C166.79 298.39 169.65 305 167.73 304.05C163.39 302.59 165.34 295.32 165.34 295.32Z" fill="#00818D"/>
<path d="M115.52 293.08C115.91 294.13 123.15 289.84 123.15 289.84C123.15 289.84 119.8 292.55 118.85 295.94C118.775 296.165 118.745 296.403 118.76 296.64C118.81 296.988 118.993 297.304 119.27 297.52C119.27 297.52 118.67 299.22 119.63 299.06C120.28 298.94 122.77 296.76 124.31 295.35C124.449 295.225 124.615 295.135 124.795 295.086C124.975 295.038 125.165 295.033 125.347 295.072C125.53 295.111 125.7 295.193 125.845 295.311C125.99 295.429 126.105 295.579 126.18 295.75C127.02 297.66 128.65 300.63 130.54 300.44C133.31 300.17 135.35 298.34 133.73 294.68C133.73 294.68 129.78 285.91 127.81 285.17C125.84 284.43 115.14 292.03 115.52 293.08Z" fill="#F7AB9D"/>
<path d="M127.81 285.17C127.003 284.654 126.038 284.445 125.09 284.58C123.09 284.64 115.7 285.25 115.65 286.27C115.6 287.29 123.17 287.37 124.97 286.95C126.77 286.53 128.35 286.1 127.81 285.17Z" fill="#F7AB9D"/>
<path d="M119.27 297.52L124.05 292.31C121.841 293.36 120.126 295.229 119.27 297.52Z" fill="#EF515F"/>
<path d="M120.66 245.51C121.23 246.41 122.12 254.28 124.15 259.79C126.18 265.3 131.69 267.9 131.69 267.9L133.05 265.44L142 249.25L147.11 261.17C150.495 258.311 153.62 255.159 156.45 251.75C157.38 250.64 158.33 249.46 159.28 248.19C151.84 240.02 150.44 229.46 139.41 229.29C128.38 229.12 119.41 238.54 119.13 240.24C118.85 241.94 120.66 245.51 120.66 245.51Z" fill="#2F2D44"/>
<path d="M124.43 253.32C125.43 255.89 125.93 258.53 127.57 261.03C128.64 262.65 131.31 264.43 133.05 265.47L142 249.25L147.11 261.17C150.495 258.311 153.62 255.159 156.45 251.75L149.27 243.45L139 246.12C139 246.12 126.91 247.12 122 244.68C121.65 248.05 123.43 250.72 124.43 253.32Z" fill="#171826"/>
<path d="M120.33 243.41C121.96 247.41 120.88 251.75 121.24 255.87C121.324 257.885 121.979 259.834 123.13 261.49C123.752 262.312 124.561 262.973 125.49 263.42C126.38 263.734 127.297 263.965 128.23 264.11C128.258 264.123 128.281 264.143 128.297 264.169C128.314 264.195 128.322 264.225 128.322 264.255C128.322 264.285 128.314 264.315 128.297 264.341C128.281 264.367 128.258 264.387 128.23 264.4C126.71 265.11 124.83 264.19 123.62 263.24C122.151 262.008 121.126 260.329 120.7 258.46C120.239 256.333 120.111 254.147 120.32 251.98C120.614 249.151 120.527 246.296 120.06 243.49C120.049 243.454 120.053 243.416 120.071 243.383C120.089 243.35 120.119 243.326 120.155 243.315C120.191 243.304 120.229 243.308 120.262 243.326C120.295 243.344 120.319 243.374 120.33 243.41Z" fill="#2F2D44"/>
<path d="M139.84 267.06C139.84 270.91 144.98 281.76 148.55 279.06C152.12 276.36 163.82 262.5 164.67 259.79C164.996 258.618 164.86 257.365 164.29 256.29C160.46 255.96 156.2 255.87 156.2 255.87C156.2 255.87 149.69 257.94 149.12 258.51C148.77 258.86 143.95 261.6 140.21 264.11C139.982 265.077 139.858 266.066 139.84 267.06Z" fill="#008EA6"/>
<path d="M137.74 255.7C137.74 255.7 139.18 257.04 140.36 258L140.49 258.11C141.7 259.18 143.89 262.11 143.79 262.92C143.799 263.696 143.635 264.465 143.31 265.17C142.834 265.996 142.685 266.969 142.89 267.9C143.56 271.17 145.18 273.77 148.01 274C150.49 274.2 157.4 264.67 160.88 259.62C161.063 259.347 161.173 259.031 161.2 258.703C161.228 258.375 161.171 258.046 161.036 257.746C160.901 257.446 160.692 257.185 160.429 256.988C160.165 256.791 159.856 256.665 159.53 256.62C158.403 256.456 157.29 256.209 156.2 255.88C153.05 254.95 147.77 251.48 144.62 249.28C143.06 248.2 142.02 247.42 142.02 247.42C142.02 247.42 139.45 246.14 138.65 247.32C137.85 248.5 137.74 255.7 137.74 255.7Z" fill="#F09087"/>
<path d="M137.74 255.7C137.74 255.7 139.18 257.04 140.36 258L140.49 258.11C142.5 255.499 143.91 252.477 144.62 249.26C143.06 248.18 142.02 247.4 142.02 247.4C142.02 247.4 139.45 246.12 138.65 247.3C137.85 248.48 137.74 255.7 137.74 255.7Z" fill="#EF515F"/>
<path d="M154.86 265.12C154.86 266.17 144.79 268.58 144.64 267.37C144.49 266.16 154.86 264.07 154.86 265.12Z" fill="#EF515F"/>
<path d="M126.43 252.54C126.617 253.376 126.555 254.249 126.25 255.05C126.196 255.231 126.209 255.425 126.286 255.598C126.363 255.77 126.499 255.909 126.67 255.99C126.985 256.137 127.324 256.225 127.67 256.25C128.05 256.247 128.426 256.336 128.764 256.51C129.102 256.684 129.392 256.938 129.61 257.25C130.82 258.7 132.61 260.5 133.49 260.61C136.27 260.97 139.95 256.4 140.59 255.07C141.23 253.74 140.48 246.24 139.41 246.34C138.34 246.44 123.95 245.22 122.41 244.9C122.439 245.446 122.533 245.986 122.69 246.51C123.52 249.5 126.11 251.32 126.43 252.54Z" fill="#F7AB9D"/>
<path d="M142.88 244.32C143.1 245.32 143.42 247.67 142.45 248.71C141.812 249.326 141.022 249.76 140.16 249.97C140.16 249.97 140.09 249.78 140 249.46L139.89 249.08C139.41 247.3 138.6 243.41 140.52 242.9C140.768 242.803 141.035 242.765 141.3 242.788C141.565 242.81 141.821 242.893 142.049 243.03C142.277 243.168 142.47 243.355 142.614 243.579C142.758 243.802 142.849 244.056 142.88 244.32Z" fill="#F7AB9D"/>
<path d="M142 244.98C142.024 245.004 142.055 245.019 142.088 245.024C142.121 245.028 142.155 245.021 142.184 245.003C142.213 244.986 142.235 244.96 142.247 244.928C142.259 244.897 142.26 244.862 142.25 244.83C142.02 244.16 141.61 243.48 140.88 243.71C139.34 244.19 139.97 247.4 139.48 247.94C140.61 247.46 141.41 247.89 141.2 248.64C141.306 248.582 141.396 248.499 141.464 248.399C141.532 248.3 141.575 248.185 141.591 248.065C141.607 247.946 141.594 247.824 141.554 247.71C141.514 247.596 141.447 247.494 141.36 247.41C141.208 247.283 141.029 247.193 140.836 247.147C140.644 247.1 140.443 247.098 140.25 247.14C140.35 245.89 140.57 244.88 141.12 244.69C141.278 244.635 141.45 244.633 141.609 244.685C141.768 244.738 141.906 244.841 142 244.98Z" fill="#EF515F"/>
<path d="M142.32 246.76C142.327 247.144 142.228 247.523 142.034 247.855C141.84 248.186 141.558 248.458 141.22 248.64C141.34 247.94 141.38 247.41 141.38 247.41C141.38 247.41 141.84 247.67 142.11 246.74C142.119 246.718 142.135 246.699 142.155 246.687C142.175 246.675 142.199 246.669 142.222 246.672C142.246 246.674 142.268 246.684 142.286 246.7C142.303 246.716 142.315 246.737 142.32 246.76Z" fill="#EF515F"/>
<path d="M134.53 253.47C134.558 253.984 134.485 254.499 134.313 254.985C134.142 255.471 133.875 255.918 133.53 256.3C132.699 256.838 131.689 257.025 130.72 256.82C132.375 256.238 133.741 255.037 134.53 253.47Z" fill="#EF515F"/>
<path d="M134.46 257.68C134.31 257.18 132.82 257.25 132.57 258.11C132.32 258.97 134.6 258.18 134.46 257.68Z" fill="#F09087"/>
<path d="M127.55 249.84C127.746 249.64 128.01 249.522 128.29 249.51C128.579 249.508 128.857 249.615 129.07 249.81C129.267 250.007 129.382 250.272 129.39 250.55C129.398 250.692 129.375 250.835 129.323 250.967C129.272 251.1 129.192 251.22 129.09 251.32C128.944 251.472 128.756 251.577 128.551 251.622C128.345 251.668 128.131 251.652 127.934 251.576C127.738 251.5 127.568 251.368 127.446 251.196C127.325 251.024 127.256 250.821 127.25 250.61C127.244 250.324 127.352 250.047 127.55 249.84Z" fill="#2F2D44"/>
<path d="M129.53 248.01C128.737 248.071 127.958 248.253 127.22 248.55C126.729 248.866 126.331 249.308 126.07 249.83C126.004 249.473 126.036 249.105 126.162 248.765C126.289 248.425 126.506 248.126 126.79 247.9C127.213 247.667 127.692 247.554 128.175 247.573C128.658 247.592 129.127 247.744 129.53 248.01Z" fill="#2F2D44"/>
<path d="M127.11 255.18C127.01 255.12 128.78 254.58 128.89 254.97C129 255.36 127.39 255.32 127.11 255.18Z" fill="#F09087"/>
<path d="M0 366.32L676 366.32V363.32L0 363.32V366.32Z" fill="#E2B17F"/>
</g>
<defs>
<clipPath id="clip0">
<rect width="676" height="366.32" fill="white"/>
</clipPath>
</defs>
</svg>
