<svg width="96" height="96" viewBox="0 0 96 96" fill="none" xmlns="http://www.w3.org/2000/svg">
<circle cx="48" cy="48" r="48" fill="#A7E5E0"/>
<path d="M49.0667 67.3333H46.9333V69.4667H49.0667V67.3333Z" fill="white"/>
<path d="M78.9333 69.4667H77.8667V31.0667C77.8667 28.7103 75.9564 26.8 73.6 26.8H67.2V18.2667C67.2 15.9103 65.2897 14 62.9333 14H33.0667C30.7103 14 28.8 15.9103 28.8 18.2667V26.8H22.4C20.0436 26.8 18.1333 28.7103 18.1333 31.0667V69.4667H17.0667C16.4776 69.4667 16 69.9443 16 70.5333V73.7333C16 76.0897 17.9103 78 20.2667 78H75.7333C78.0897 78 80 76.0897 80 73.7333V70.5333C80 69.9443 79.5224 69.4667 78.9333 69.4667ZM30.9333 18.2667C30.9333 17.0884 31.8884 16.1333 33.0667 16.1333H62.9333C64.1116 16.1333 65.0667 17.0884 65.0667 18.2667V22.5333H30.9333V18.2667ZM30.9333 24.6667H65.0667V55.6C65.0667 56.7783 64.1116 57.7333 62.9333 57.7333H33.0667C31.8884 57.7333 30.9333 56.7783 30.9333 55.6V24.6667ZM33.0667 59.8667H62.9333C65.2897 59.8667 67.2 57.9564 67.2 55.6V33.2H71.4667V63.0667H24.5333V33.2H28.8V55.6C28.8 57.9564 30.7103 59.8667 33.0667 59.8667ZM20.2667 31.0667C20.2667 29.8884 21.2217 28.9333 22.4 28.9333H28.8V31.0667H23.4667C22.8776 31.0667 22.4 31.5443 22.4 32.1333V64.1333C22.4 64.7224 22.8776 65.2 23.4667 65.2H72.5333C73.1224 65.2 73.6 64.7224 73.6 64.1333V32.1333C73.6 31.5443 73.1224 31.0667 72.5333 31.0667H67.2V28.9333H73.6C74.7783 28.9333 75.7333 29.8884 75.7333 31.0667V69.4667H57.6C57.3173 69.4664 57.046 69.5785 56.8459 69.7781L55.0251 71.6H40.9749L39.1541 69.7781C38.954 69.5785 38.6827 69.4664 38.4 69.4667H20.2667V31.0667ZM77.8667 73.7333C77.8667 74.9116 76.9116 75.8667 75.7333 75.8667H20.2667C19.0884 75.8667 18.1333 74.9116 18.1333 73.7333V71.6H37.9584L39.7792 73.4208C39.9792 73.6208 40.2504 73.7333 40.5333 73.7333H55.4667C55.7496 73.7333 56.0208 73.6208 56.2208 73.4208L58.0416 71.6H77.8667V73.7333Z" fill="white"/>
<path d="M61.8667 48.1333H34.1334V50.2667H61.8667V48.1333Z" fill="white"/>
<path d="M59.7334 52.4H34.1334V54.5333H59.7334V52.4Z" fill="white"/>
<path d="M61.8667 43.8667H40.5333V46H61.8667V43.8667Z" fill="white"/>
<path d="M35.2 18.2667H33.0667V20.4H35.2V18.2667Z" fill="white"/>
<path d="M39.4666 18.2667H37.3333V20.4H39.4666V18.2667Z" fill="white"/>
<path d="M43.7333 18.2667H41.6V20.4H43.7333V18.2667Z" fill="white"/>
<path d="M38.4 43.8667H36.2667V46H38.4V43.8667Z" fill="white"/>
<path d="M44.3734 31.92L43.0934 30.2133L38.8267 33.4133C38.3554 33.7668 38.2599 34.4353 38.6134 34.9067C38.674 34.9875 38.7459 35.0593 38.8267 35.12L43.0934 38.32L44.3734 36.6133L41.2448 34.2667L44.3734 31.92Z" fill="white"/>
<path d="M57.3867 33.6267C57.326 33.5459 57.2541 33.474 57.1733 33.4133L52.9066 30.2133L51.6266 31.92L54.7552 34.2667L51.6266 36.6133L52.9066 38.32L57.1733 35.12C57.6447 34.7665 57.7401 34.098 57.3867 33.6267Z" fill="white"/>
<path d="M49.1441 28.5394L44.8763 39.2048L46.8569 39.9974L51.1246 29.3319L49.1441 28.5394Z" fill="white"/>
</svg>
