<svg width="96" height="96" viewBox="0 0 96 96" fill="none" xmlns="http://www.w3.org/2000/svg">
<circle cx="48" cy="48" r="48" fill="#A7E5E0"/>
<g clip-path="url(#clip0)">
<path d="M68.4579 36.5066H66.5642V21.0742C66.5642 20.6532 66.3183 20.271 65.9352 20.0966C65.5521 19.922 65.1025 19.9874 64.7848 20.2638L61.94 22.7388C60.4552 24.0307 58.8507 25.2261 57.1713 26.2918C50.794 30.3392 43.4252 32.4786 35.8616 32.4786H30.6307C25.3606 32.4786 21.0728 36.7406 21.0728 41.9794C21.0728 47.2181 25.3605 51.4802 30.6307 51.4802H33.1371V73.9258C33.1371 74.519 33.6181 75 34.2113 75H40.373C42.4975 75 44.226 73.2716 44.226 71.1471V66.6457H45.8532C47.981 66.6457 49.712 64.9147 49.712 62.7823C49.712 60.6545 47.981 58.9235 45.8532 58.9235H44.226V52.3663C48.7993 53.3478 53.1795 55.1336 57.1713 57.667C58.8508 58.7329 60.4552 59.9284 61.94 61.2199L64.7848 63.695C64.9842 63.8685 65.2357 63.9589 65.4901 63.9589C65.6408 63.9589 65.7926 63.9272 65.9351 63.8623C66.3182 63.6878 66.5641 63.3056 66.5641 62.8847V47.4524H68.4578C71.4736 47.4524 73.9271 44.9989 73.9271 41.9758C73.9272 38.96 71.4737 36.5066 68.4579 36.5066ZM23.2214 41.9795C23.2214 37.9254 26.5451 34.6271 30.6308 34.6271H33.1372V49.332H30.6307C26.5451 49.3319 23.2214 46.0336 23.2214 41.9795ZM45.8533 61.0719C46.7964 61.0719 47.5637 61.8392 47.5637 62.7869C47.5637 63.73 46.7964 64.4973 45.8533 64.4973H44.2261V61.0719H45.8533ZM42.0777 71.1471C42.0777 72.087 41.313 72.8516 40.3731 72.8516H35.2856V51.4803H35.8617C37.9543 51.4803 40.0318 51.6441 42.0777 51.9667V71.1471ZM64.4157 60.5262L63.3501 59.599C61.9319 58.3653 60.4107 57.2151 58.8212 56.1744V47.3795C58.8212 46.7863 58.3402 46.3053 57.747 46.3053C57.1538 46.3053 56.6728 46.7863 56.6728 47.3795V54.8583C50.3437 51.2372 43.1893 49.332 35.8617 49.332H35.2856V34.6271H35.8617C43.1895 34.6271 50.3438 32.7218 56.6728 29.1007V37.6672C56.6728 38.2605 57.1538 38.7415 57.747 38.7415C58.3402 38.7415 58.8212 38.2605 58.8212 37.6672V27.7845C60.4106 26.7439 61.9319 25.5938 63.3501 24.3598L64.4157 23.4328V60.5262ZM68.4579 45.304H66.5642V38.655H68.4579C70.289 38.655 71.7787 40.1447 71.7787 41.9831C71.7787 43.8143 70.289 45.304 68.4579 45.304Z" fill="white"/>
<path d="M58.7385 42.1321C58.5653 41.7167 58.1407 41.446 57.6898 41.4704C57.242 41.4947 56.8509 41.803 56.7196 42.231C56.588 42.6598 56.7475 43.139 57.1074 43.4055C57.4578 43.665 57.9431 43.6851 58.3137 43.4551C58.7543 43.1817 58.9379 42.611 58.7385 42.1321Z" fill="white"/>
</g>
<defs>
<clipPath id="clip0">
<rect width="55" height="55" fill="white" transform="translate(20 20)"/>
</clipPath>
</defs>
</svg>
