<svg width="96" height="96" viewBox="0 0 96 96" fill="none" xmlns="http://www.w3.org/2000/svg">
<circle cx="48" cy="48" r="48" fill="#A7E5E0"/>
<path d="M79.6416 57.2434H75.6077C75.0495 57.2434 74.5969 57.6788 74.5969 58.216C74.5969 58.7533 75.0495 59.1887 75.6077 59.1887H79.6416C79.8273 59.1887 79.9785 59.334 79.9785 59.5129V74.6858C79.9785 74.8646 79.8273 75.01 79.6416 75.01H63.874C63.6883 75.01 63.5371 74.8646 63.5371 74.6858V59.5129C63.5371 59.334 63.6883 59.1887 63.874 59.1887H70.8909C71.4491 59.1887 71.9016 58.7533 71.9016 58.216C71.9016 57.6788 71.4491 57.2434 70.8909 57.2434H63.874C62.5737 57.2434 61.5156 58.2616 61.5156 59.5129V74.6858C61.5156 75.9371 62.5737 76.9553 63.874 76.9553H79.6416C80.942 76.9553 82 75.9371 82 74.6858V59.5129C82 58.2616 80.942 57.2434 79.6416 57.2434ZM75.4329 64.5355C75.4329 62.5854 73.7843 60.9989 71.7578 60.9989C70.0057 60.9989 68.4891 62.1983 68.1518 63.851C68.0442 64.3781 68.4009 64.8893 68.9488 64.9929C69.4963 65.0965 70.0277 64.753 70.1354 64.2259C70.287 63.4832 70.9693 62.9442 71.7579 62.9442C72.6698 62.9442 73.4115 63.6581 73.4115 64.5355C73.4115 65.4129 72.6696 66.1267 71.7578 66.1267C71.1996 66.1267 70.7471 66.5621 70.7471 67.0993C70.7471 67.6366 71.1996 68.072 71.7578 68.072C72.6696 68.072 73.4114 68.7857 73.4114 69.6632C73.4114 70.5406 72.6696 71.2544 71.7578 71.2544C70.9374 71.2544 70.2333 70.6663 70.1203 69.8861C70.1096 69.8131 70.1042 69.7379 70.1042 69.663C70.1042 69.1258 69.6517 68.6904 69.0935 68.6904C68.5353 68.6904 68.0828 69.1258 68.0828 69.663C68.0828 69.8277 68.0946 69.9933 68.1182 70.1551C68.3699 71.8907 69.9346 73.1996 71.7578 73.1996C73.7843 73.1996 75.4329 71.6132 75.4329 69.663C75.4329 68.6546 74.9912 67.7441 74.2851 67.0992C74.9912 66.4544 75.4329 65.544 75.4329 64.5355ZM55.3838 57.2434H39.6162C38.3159 57.2434 37.2578 58.2616 37.2578 59.5129V74.6858C37.2578 75.9371 38.3159 76.9553 39.6162 76.9553H55.3838C56.6841 76.9553 57.7422 75.9371 57.7422 74.6858V59.5129C57.7422 58.2616 56.6841 57.2434 55.3838 57.2434ZM55.7207 74.6858C55.7207 74.8646 55.5695 75.01 55.3838 75.01H39.6162C39.4305 75.01 39.2793 74.8646 39.2793 74.6858V59.5129C39.2793 59.334 39.4305 59.1887 39.6162 59.1887H55.3838C55.5695 59.1887 55.7207 59.334 55.7207 59.5129V74.6858ZM56.8634 41.6201C56.4932 42.0222 56.532 42.6369 56.9499 42.993L71.1003 55.0536C71.5167 55.4088 72.1558 55.3736 72.5271 54.9703C72.8973 54.5682 72.8584 53.9535 72.4405 53.5974L58.2901 41.5368C57.8722 41.1807 57.2334 41.2181 56.8634 41.6201ZM23.8998 55.0536L38.0502 42.993C38.4681 42.6369 38.5068 42.0222 38.1368 41.6201C37.7667 41.2178 37.1279 41.1804 36.71 41.5368L22.5596 53.5974C22.1417 53.9535 22.103 54.5682 22.4731 54.9703C22.8442 55.3736 23.4836 55.4086 23.8998 55.0536ZM46.4893 44.2102V54.3255C46.4893 54.8628 46.9418 55.2982 47.5 55.2982C48.0582 55.2982 48.5107 54.8628 48.5107 54.3255V44.2102C48.5107 43.673 48.0582 43.2376 47.5 43.2376C46.9418 43.2376 46.4893 43.673 46.4893 44.2102ZM50.3603 71.2115C50.356 71.2115 50.3516 71.2115 50.3473 71.2116C49.1604 71.2259 47.8992 71.2316 46.9138 71.2345C47.5008 70.4847 48.3652 69.3575 49.5883 67.6759C50.2413 66.7781 50.6665 65.9327 50.8518 65.1626C50.8594 65.1309 50.8655 65.0987 50.8697 65.0663L50.9212 64.6787C50.9267 64.6378 50.9294 64.5966 50.9294 64.5555C50.9294 62.6055 49.2808 61.019 47.2543 61.019C45.5021 61.019 43.9856 62.2184 43.6483 63.871C43.5407 64.398 43.8976 64.9094 44.4453 65.0129C44.9932 65.1162 45.5243 64.7729 45.6319 64.2459C45.7835 63.5032 46.4658 62.9643 47.2545 62.9643C48.1473 62.9643 48.877 63.6485 48.907 64.5009L48.8715 64.7676C48.7378 65.284 48.4221 65.8871 47.9322 66.5605C46.281 68.8307 45.2955 70.0726 44.7659 70.7398C44.1131 71.5625 43.8687 71.8703 44.0443 72.4196C44.1462 72.7383 44.3977 72.9833 44.7349 73.0915C44.8699 73.1347 45.0177 73.1821 47.0235 73.1821C47.8139 73.1821 48.8927 73.1747 50.3728 73.1568C50.931 73.1501 51.3777 72.7093 51.3707 72.1722C51.3636 71.6389 50.9125 71.2115 50.3603 71.2115ZM31.126 57.2434H15.3584C14.058 57.2434 13 58.2616 13 59.5129V74.6858C13 75.9371 14.058 76.9553 15.3584 76.9553H31.126C32.4263 76.9553 33.4844 75.9371 33.4844 74.6858V68.0271C33.4844 67.4898 33.0318 67.0545 32.4736 67.0545C31.9154 67.0545 31.4629 67.4898 31.4629 68.0271V74.6858C31.4629 74.8646 31.3117 75.01 31.126 75.01H15.3584C15.1727 75.01 15.0215 74.8646 15.0215 74.6858V59.5129C15.0215 59.334 15.1727 59.1887 15.3584 59.1887H31.126C31.3117 59.1887 31.4629 59.334 31.4629 59.5129V63.4882C31.4629 64.0255 31.9154 64.4608 32.4736 64.4608C33.0318 64.4608 33.4844 64.0255 33.4844 63.4882V59.5129C33.4844 58.2616 32.4263 57.2434 31.126 57.2434ZM39.9415 23.4329C40.6261 25.4486 42.1578 27.098 44.1309 27.9901V32.4739H42.5811C41.2807 32.4739 40.2227 33.492 40.2227 34.7434V39.0229C40.2227 40.2742 41.2807 41.2924 42.5811 41.2924H52.4189C53.7193 41.2924 54.7773 40.2742 54.7773 39.0229V34.7434C54.7773 33.492 53.7193 32.4739 52.4189 32.4739H50.8691V27.9901C52.8422 27.098 54.3739 25.4486 55.0585 23.4329C58.7082 22.8266 61.4725 19.732 61.4725 16.1027V14.1237C61.4725 13.2298 60.7169 12.5027 59.7879 12.5027H55.4512V12.1785C55.4512 11.2846 54.6955 10.5574 53.7666 10.5574H41.2334C40.3045 10.5574 39.5488 11.2846 39.5488 12.1785V12.5027H35.2121C34.2831 12.5027 33.5275 13.2298 33.5275 14.1237V16.1027C33.5275 19.732 36.2919 22.8266 39.9415 23.4329ZM55.4512 14.4479H59.451V16.1027C59.451 18.5357 57.7691 20.6424 55.4436 21.3455C55.4548 21.0915 55.4548 14.7244 55.4512 14.4479ZM52.4189 34.4192C52.6047 34.4192 52.7559 34.5645 52.7559 34.7434V39.0229C52.7559 39.2017 52.6047 39.3471 52.4189 39.3471H42.5811C42.3953 39.3471 42.2441 39.2017 42.2441 39.0229V34.7434C42.2441 34.5645 42.3953 34.4192 42.5811 34.4192H52.4189ZM46.1523 32.4739V28.6009C46.5907 28.6733 47.0405 28.7131 47.5 28.7131C47.9595 28.7131 48.4093 28.6733 48.8477 28.6009V32.4739H46.1523ZM41.5703 12.5027H53.4297V21.0618C53.4297 24.2082 50.7697 26.7678 47.5 26.7678C44.2303 26.7678 41.5703 24.2082 41.5703 21.0618V12.5027ZM35.549 14.4479H39.5488C39.5518 14.7244 39.5428 21.0919 39.5562 21.3455C37.2309 20.6424 35.549 18.5357 35.549 16.1027V14.4479ZM24.3549 73.0818C24.9131 73.0818 25.3657 72.6464 25.3657 72.1091V62.0895C25.3657 61.5523 24.9131 61.1169 24.3549 61.1169H22.1294C21.5712 61.1169 21.1187 61.5523 21.1187 62.0895C21.1187 62.6268 21.5712 63.0622 22.1294 63.0622H23.3442V72.1091C23.3442 72.6463 23.7967 73.0818 24.3549 73.0818Z" fill="white"/>
</svg>
