<svg width="20" height="15" viewBox="0 0 20 15" fill="none" xmlns="http://www.w3.org/2000/svg">
<path d="M18.3317 0H1.66708C0.747745 0 0 0.747745 0 1.66708V13.3329C0 14.2523 0.747745 15 1.66708 15H18.3329C19.2523 15 20 14.2523 20 13.3329V1.66708C19.9987 0.747745 19.251 0 18.3317 0ZM1.66708 0.832917H18.3329C18.3943 0.832917 18.4481 0.855462 18.5058 0.867987C17.0629 2.18813 12.2783 6.56563 10.605 8.07365C10.4734 8.19138 10.263 8.33292 10 8.33292C9.73698 8.33292 9.52655 8.19264 9.39504 8.07365C7.72044 6.56563 2.93712 2.18813 1.49424 0.867987C1.5506 0.855462 1.60571 0.832917 1.66708 0.832917ZM0.832919 13.3317V1.66583C0.832919 1.58442 0.857968 1.51052 0.879261 1.43537C1.98397 2.44614 5.3219 5.49975 7.48623 7.46869C5.32816 9.3224 1.99023 12.4875 0.876754 13.5496C0.857966 13.4782 0.832919 13.4093 0.832919 13.3317ZM18.3317 14.1658H1.66708C1.6007 14.1658 1.54183 14.142 1.47921 14.1283C2.62901 13.0323 5.98948 9.84845 8.10872 8.03482C8.38552 8.28532 8.63727 8.51453 8.83642 8.69364C9.17961 9.00426 9.58167 9.16709 9.99875 9.16709C10.4158 9.16709 10.8179 9.00301 11.1611 8.69364C11.3602 8.51453 11.6132 8.28532 11.8888 8.03482C14.008 9.84845 17.3685 13.0311 18.5183 14.1283C18.4569 14.142 18.398 14.1658 18.3317 14.1658ZM19.1646 13.3317C19.1646 13.4081 19.1408 13.4782 19.1207 13.5483C18.0073 12.4862 14.6681 9.32114 12.5113 7.46869C14.6756 5.49975 18.0135 2.4474 19.1182 1.43537C19.1408 1.51052 19.1646 1.58442 19.1646 1.66583V13.3317Z" fill="white"/>
</svg>
