<svg width="21" height="22" viewBox="0 0 21 22" fill="none" xmlns="http://www.w3.org/2000/svg">
<path d="M20.1307 7.76503C20.1307 5.69924 19.3212 3.75107 17.8504 2.28025C16.3796 0.809435 14.4328 0 12.3657 0H7.76503C5.69924 0 3.75107 0.809435 2.28025 2.28025C0.809431 3.75107 0 5.69924 0 7.76503V11.3819C0 12.9828 0.488429 14.5214 1.41132 15.8331C2.22629 16.9912 3.32214 17.8947 4.59924 18.4675V20.5444C4.59924 21.6181 5.20113 22 5.71585 22C6.0839 22 6.45195 21.8187 6.81032 21.4604L9.12516 19.1455H12.3671C14.4328 19.1455 16.381 18.3361 17.8518 16.8653C19.3226 15.3945 20.1321 13.4463 20.1321 11.3805L20.1307 7.76503ZM12.3657 17.8574H8.85672C8.68515 17.8574 8.52189 17.9252 8.40151 18.0455L5.89849 20.5486C5.89572 20.5513 5.89157 20.5555 5.8888 20.5582C5.8888 20.5541 5.8888 20.5485 5.8888 20.5444V18.0372C5.8888 17.7702 5.72415 17.5308 5.47371 17.4353C2.97069 16.4806 1.28956 14.0468 1.28956 11.3819V7.76503C1.28956 6.04377 1.96478 4.41937 3.19208 3.19208C4.41937 1.96478 6.04239 1.28956 7.76503 1.28956H12.3657C14.0869 1.28956 15.7113 1.96478 16.9386 3.19208C18.1659 4.41937 18.8411 6.04377 18.8411 7.76503V11.3819C18.8411 14.9531 15.9369 17.8574 12.3657 17.8574Z" fill="white"/>
<path d="M11.779 10.542C11.5272 10.2902 11.119 10.2902 10.8672 10.542L10.3469 11.0623L8.32956 9.04489L8.84981 8.52464C8.97019 8.40426 9.03799 8.23961 9.03799 8.06942C9.03799 7.89923 8.97019 7.73458 8.84981 7.6142L6.40906 5.17206C6.28868 5.05168 6.12403 4.98389 5.95384 4.98389C5.78365 4.98389 5.61899 5.05168 5.49861 5.17206L3.78981 6.88087C2.86553 7.80514 2.86553 9.30917 3.78981 10.2334L9.15975 15.6034C9.60667 16.0503 10.2016 16.2952 10.8353 16.2952C11.4704 16.2952 12.0654 16.0489 12.5109 15.6034L14.2197 13.8946C14.3401 13.7742 14.4079 13.6095 14.4079 13.4394C14.4079 13.2692 14.3401 13.1045 14.2197 12.9841L11.779 10.542ZM11.6005 14.6916C11.3971 14.895 11.1259 15.0056 10.8353 15.0056C10.5448 15.0056 10.2736 14.8936 10.0702 14.6916L4.70025 9.32162C4.27824 8.89961 4.27824 8.21332 4.70025 7.79269L5.95245 6.53911L7.48138 8.06803L6.96113 8.58829C6.84075 8.70866 6.77296 8.87332 6.77296 9.04351C6.77296 9.21508 6.84075 9.37835 6.96113 9.49873L9.89032 12.4279C10.1421 12.6797 10.5503 12.6797 10.8021 12.4279L11.3224 11.9077L12.8513 13.4366L11.6005 14.6916Z" fill="white"/>
<path d="M10.221 2.85156C9.86542 2.85156 9.57623 3.14075 9.57623 3.49634C9.57623 3.85194 9.86542 4.14112 10.221 4.14112C11.696 4.14112 13.0824 4.71533 14.1257 5.7586C15.1689 6.80187 15.7431 8.18829 15.7431 9.66326C15.7431 10.0189 16.0323 10.308 16.3879 10.308C16.7435 10.308 17.0327 10.0189 17.0327 9.66326C17.0327 7.84376 16.3243 6.13357 15.0375 4.84678C13.7521 3.55999 12.0405 2.85156 10.221 2.85156Z" fill="white"/>
<path d="M12.9828 9.66346C12.9828 10.0191 13.2719 10.3082 13.6275 10.3082C13.9831 10.3082 14.2723 10.0191 14.2723 9.66346C14.2723 7.43025 12.4556 5.61353 10.2224 5.61353C9.86679 5.61353 9.57761 5.90271 9.57761 6.25831C9.57761 6.6139 9.86679 6.90309 10.2224 6.90309C11.7444 6.90309 12.9828 8.14145 12.9828 9.66346Z" fill="white"/>
</svg>
