<svg width="20" height="11" viewBox="0 0 20 11" fill="none" xmlns="http://www.w3.org/2000/svg">
<path d="M19.8945 9.93541C19.8707 9.88468 19.8482 9.84361 19.8269 9.80979C19.4799 9.20703 18.8171 8.46778 17.8374 7.59083L17.8161 7.57029L17.8061 7.56063L17.7961 7.55096H17.7861C17.3413 7.14268 17.0607 6.86848 16.9429 6.72716C16.7274 6.459 16.6786 6.18842 16.7964 5.91423C16.879 5.70646 17.1922 5.26798 17.7335 4.59879C18.0178 4.24366 18.2434 3.9598 18.41 3.74479C19.5738 2.25179 20.0987 1.28183 19.9847 0.833686C19.9772 0.805904 19.9647 0.780535 19.9497 0.756377L19.9108 0.693566C19.8695 0.63317 19.7618 0.577606 19.5876 0.528081C19.4172 0.478556 19.2005 0.4701 18.9374 0.501506C18.9261 0.502714 18.9148 0.503921 18.9048 0.503921L15.9219 0.523248C15.873 0.506337 15.8041 0.508754 15.7139 0.528081C15.6237 0.548615 15.5786 0.558279 15.5786 0.558279L15.526 0.583644L15.4847 0.613842C15.4496 0.634377 15.412 0.669406 15.3707 0.718931C15.3293 0.768456 15.2943 0.827646 15.2667 0.894082C14.9397 1.7046 14.5689 2.45714 14.1517 3.1529C13.8949 3.56843 13.6593 3.92718 13.4439 4.23279C13.2284 4.53719 13.048 4.76186 12.9026 4.90561C12.7573 5.04935 12.6245 5.16531 12.5068 5.25228C12.389 5.33925 12.2988 5.3767 12.2361 5.3622C12.1973 5.35375 12.1597 5.34529 12.1246 5.33684C12.0808 5.32717 12.0395 5.31026 12.0044 5.28369C11.9317 5.22812 11.8728 5.15927 11.8252 5.07592C11.7663 4.97204 11.7263 4.84158 11.705 4.68455C11.6837 4.52752 11.6724 4.39224 11.6686 4.27748C11.6649 4.16394 11.6674 4.00328 11.6736 3.79552C11.6812 3.58776 11.6837 3.44764 11.6837 3.37396C11.6837 3.11908 11.6887 2.84367 11.6987 2.54532C11.7087 2.24696 11.7175 2.01141 11.725 1.83747C11.7325 1.66353 11.735 1.47872 11.735 1.28545C11.735 1.09097 11.7225 0.938775 11.6987 0.828853C11.6749 0.718932 11.6386 0.611426 11.5897 0.507544C11.5408 0.403663 11.4694 0.323941 11.3767 0.267168C11.2828 0.210396 11.1663 0.165703 11.0284 0.131881C10.6601 0.0521577 10.1916 0.00867031 9.6228 0.00142275C8.33116 -0.0118644 7.5018 0.0678587 7.13348 0.243008C6.98815 0.316692 6.85535 0.416948 6.73759 0.543781C6.61231 0.691148 6.70502 0.836101 6.68498 0.78416C7.08337 0.842141 7.37025 0.976219 7.54689 1.1864C7.56318 1.20573 7.57572 1.22626 7.58699 1.248L7.63209 1.33618C7.68095 1.42315 7.72981 1.57777 7.77742 1.79761C7.82628 2.01866 7.8576 2.26266 7.87138 2.53082C7.90646 3.02003 7.90646 3.43798 7.87138 3.78586C7.8363 4.13374 7.80373 4.40552 7.77241 4.59879C7.74109 4.79327 7.69473 4.9503 7.63209 5.07109C7.56945 5.19188 7.52811 5.26557 7.50681 5.29214C7.48551 5.31872 7.46922 5.33563 7.45544 5.34287C7.36524 5.3767 7.27128 5.39361 7.17482 5.39361C7.0771 5.39361 6.95934 5.3465 6.82028 5.25349C6.68122 5.15927 6.53713 5.03123 6.38805 4.86695C6.23897 4.70267 6.06985 4.47317 5.88318 4.17964C5.69526 3.88491 5.50107 3.53703 5.30062 3.13599L5.13401 2.84488C5.03002 2.65765 4.8872 2.38466 4.7068 2.02711C4.52639 1.66836 4.36602 1.3229 4.22822 0.9883C4.17309 0.848181 4.08916 0.740675 3.97891 0.666991L3.9263 0.636793C3.89122 0.610219 3.83609 0.58123 3.75967 0.551032C3.69327 0.524457 3.62562 0.505128 3.55421 0.491841C3.53166 0.487009 3.50786 0.485802 3.48531 0.485802L0.666501 0.50513C0.374597 0.50513 0.176655 0.569148 0.0726725 0.69598L0.0313201 0.756377C0.0100224 0.790199 0 0.84335 0 0.917033C0 0.990717 0.0212977 1.08131 0.0626402 1.18761C0.478571 2.131 0.932099 3.04177 1.42195 3.91873C1.91179 4.79568 2.33648 5.50232 2.69729 6.03743C3.0581 6.57254 3.42643 7.07866 3.80102 7.55338C4.17561 8.02809 4.42366 8.3337 4.54518 8.46657C4.6667 8.60065 4.76192 8.70091 4.83208 8.76735L5.09265 9.00772C5.25928 9.16838 5.50357 9.36044 5.8268 9.58511C6.15002 9.80979 6.50708 10.0308 6.8992 10.2483C7.29133 10.4657 7.74734 10.6433 8.26851 10.7798C8.78968 10.9175 9.29581 10.9718 9.78942 10.9452H10.9871C11.2302 10.9247 11.4143 10.851 11.5396 10.7242L11.5809 10.6735C11.6085 10.6336 11.6348 10.572 11.6586 10.4874C11.6824 10.4041 11.6949 10.3111 11.6949 10.2108C11.6874 9.92333 11.71 9.66363 11.7626 9.43292C11.814 9.2022 11.8741 9.02826 11.9392 8.91109C12.0056 8.79392 12.0796 8.69487 12.1635 8.61515C12.2462 8.53542 12.3063 8.4859 12.3414 8.46899C12.3765 8.45208 12.404 8.44121 12.4241 8.43396C12.5907 8.38081 12.7874 8.43275 13.0129 8.58978C13.2384 8.74681 13.4501 8.94129 13.6481 9.172C13.846 9.40272 14.084 9.66242 14.3609 9.94991C14.6328 10.2326 14.8721 10.4427 15.0775 10.5841C15.0863 10.5901 15.0951 10.5949 15.1038 10.5998L15.298 10.7121C15.4371 10.793 15.6175 10.8667 15.8392 10.9332C16.061 10.9996 16.2551 11.0165 16.4218 10.9839L19.0877 10.944C19.3508 10.944 19.5563 10.9018 19.7016 10.8184C19.8469 10.7351 19.9346 10.642 19.9622 10.5418C19.9898 10.4415 19.991 10.328 19.9672 10.1999C19.9421 10.0743 19.9183 9.98493 19.8945 9.93541Z" fill="white"/>
</svg>
