<svg width="20" height="20" viewBox="0 0 20 20" fill="none" xmlns="http://www.w3.org/2000/svg">
<path d="M20 9.7434C20 15.1233 15.6038 19.4855 10.1811 19.4855C8.46037 19.4855 6.84276 19.0453 5.43647 18.2742L0 20L1.77232 14.7711C0.879241 13.3031 0.364783 11.5811 0.364783 9.74214C0.366041 4.36227 4.75974 0 10.1836 0C15.605 0.00125786 20 4.36227 20 9.7434ZM10.1799 1.55346C5.62894 1.55346 1.92579 5.22768 1.92579 9.74466C1.92579 11.5371 2.5107 13.1962 3.49812 14.5459L2.46792 17.5874L5.63899 16.5799C6.94339 17.4352 8.50441 17.9333 10.1799 17.9333C14.7308 17.9333 18.4352 14.2591 18.4352 9.7434C18.4365 5.22768 14.7321 1.55346 10.1799 1.55346ZM15.1396 11.9874C15.078 11.8893 14.9182 11.8289 14.678 11.7094C14.439 11.5899 13.2541 11.0126 13.034 10.9346C12.8126 10.8541 12.6516 10.8138 12.4918 11.0528C12.3333 11.2918 11.8717 11.8302 11.7296 11.9899C11.5723 12.3145 11.4491 12.1698 11.2088 12.0516C10.9686 11.9308 10.1924 11.6792 9.27295 10.8667C8.55723 10.2327 8.07421 9.45157 7.93459 9.21258C7.79245 8.97358 7.92076 8.84528 8.039 8.72579C8.14717 8.61761 8.27925 8.44655 8.4 8.30692C8.52076 8.16856 8.561 8.06918 8.64024 7.90943C8.71949 7.74969 8.67925 7.61132 8.62013 7.49056C8.55975 7.37107 8.07925 6.19623 7.87799 5.71824C7.67799 5.24025 7.47798 5.3195 7.3371 5.3195C7.19748 5.3195 7.03648 5.29937 6.87548 5.29937C6.71447 5.29937 6.54089 5.26918 6.23397 5.59623C6.01259 5.83396 5.39245 6.41258 5.39245 7.58742C5.39245 8.76352 6.2541 9.89812 6.37485 10.0566C6.4956 10.2151 8.04025 12.7057 10.4868 13.6616C12.9346 14.6176 12.9346 14.2981 13.3748 14.2579C13.8176 14.2176 14.7987 13.6805 14.9987 13.1233C15.2 12.566 15.2 12.0868 15.1396 11.9874Z" fill="white"/>
</svg>
